<svg xmlns="http://www.w3.org/2000/svg" id='trashIco' width="30" height="30"  fill='white' enable-background="new 0 0 640 640" viewBox="0 0 640 640"><path fill="white" d="M-756.335-562.825l-330.766,330.782c-2.343,2.342-6.142,2.342-8.484,0l-12.372-12.371
		c-2.343-2.344-2.343-6.143,0-8.484l330.777-330.762c0.049-0.049,0.099-0.097,0.149-0.144c0.199-0.214,0.015-0.037,0.164-0.187l0,0
		c2.881-2.88,6.655-4.32,10.428-4.32c3.773,0,7.548,1.44,10.428,4.32l0,0h0.001c2.88,2.88,4.319,6.654,4.319,10.428
		s-1.44,7.548-4.319,10.428h-0.001c-0.165,0.166,0.073-0.082-0.278,0.251l-0.054,0.052L-756.335-562.825L-756.335-562.825z
		 M-1091.343-244.77l326.523-326.539l0.006,0.005c0.073-0.073,0.149-0.146,0.229-0.217l0.018-0.016
		c-0.026,0.021-0.023,0.015,0.074-0.083l0,0c0.535-0.536,0.804-1.239,0.804-1.943s-0.268-1.408-0.804-1.943l0,0l-0.001-0.001
		c-0.535-0.535-1.239-0.804-1.943-0.804c-0.703,0-1.407,0.269-1.943,0.804v0.001l-0.055,0.054c-0.083,0.094-0.169,0.187-0.259,0.276
		l-326.536,326.52L-1091.343-244.77L-1091.343-244.77z M-764.482-571.608L-764.482-571.608l-0.002-0.001L-764.482-571.608
		L-764.482-571.608L-764.482-571.608z M-764.483-571.609L-764.483-571.609C-764.457-571.634-764.464-571.627-764.483-571.609
		L-764.483-571.609z M-764.538-571.556l0.056-0.053l-0.002-0.001l-0.055,0.049C-764.52-571.575-764.616-571.48-764.538-571.556
		L-764.538-571.556z"/><path fill="white" d="M-1175.97-285.369l5.887-5.887 0 0c4.454-4.453 10.291-6.682 16.127-6.682 5.836 0 11.673 2.229 16.126 6.682h0l44.542 44.543 44.542 44.543h0c4.453 4.453 6.681 10.291 6.681 16.127s-2.227 11.672-6.681 16.127l0 0-5.887 5.887-65.14 65.141c-2.342 2.342-6.142 2.342-8.484 0-2.343-2.344-2.343-6.143 0-8.484l54.898-54.898-5.623-5.623-74.449 74.449c-2.343 2.342-6.142 2.342-8.484 0-2.342-2.344-2.342-6.143 0-8.484l74.449-74.449-5.623-5.623-88.556 88.557c-2.342 2.342-6.142 2.342-8.484 0-2.343-2.344-2.343-6.143 0-8.484l88.555-88.557-5.623-5.621-102.663 102.662c-2.342 2.342-6.142 2.342-8.484 0-2.343-2.344-2.343-6.143 0-8.484l102.663-102.662-5.624-5.623-116.77 116.77c-2.343 2.342-6.142 2.342-8.484 0-2.342-2.344-2.342-6.143 0-8.484l116.77-116.77-5.624-5.623-102.662 102.662c-2.343 2.342-6.142 2.342-8.484 0-2.342-2.344-2.342-6.143 0-8.484l102.663-102.662-5.623-5.623-88.556 88.555c-2.343 2.344-6.142 2.344-8.484 0-2.342-2.342-2.342-6.141 0-8.484l88.557-88.555-5.623-5.623-74.449 74.449c-2.343 2.342-6.142 2.342-8.484 0-2.342-2.342-2.342-6.141 0-8.484l74.45-74.449-5.624-5.623-54.898 54.898c-2.342 2.344-6.142 2.344-8.484 0-2.343-2.342-2.343-6.141 0-8.484L-1175.97-285.369-1175.97-285.369zM-1161.6-282.771l-7.644 7.643 52.186 52.188 52.186 52.186 7.644-7.645h0c2.109-2.109 3.165-4.877 3.165-7.643 0-2.768-1.055-5.533-3.165-7.643v-.002l-44.542-44.541-44.542-44.543h0c-2.11-2.109-4.876-3.166-7.643-3.166S-1159.489-284.881-1161.6-282.771L-1161.6-282.771-1161.6-282.771zM-1184.74-424.966c4.858 0 9.259 1.97 12.444 5.155 3.185 3.185 5.155 7.584 5.155 12.443 0 4.858-1.971 9.259-5.155 12.444-3.185 3.185-7.585 5.155-12.444 5.155-4.859 0-9.259-1.971-12.444-5.155-3.185-3.186-5.155-7.586-5.155-12.444 0-4.859 1.97-9.259 5.155-12.443C-1193.999-422.996-1189.599-424.966-1184.74-424.966L-1184.74-424.966zM-1180.78-411.327c-1.013-1.013-2.413-1.639-3.959-1.639s-2.947.626-3.96 1.639c-1.013 1.014-1.639 2.413-1.639 3.96s.626 2.947 1.639 3.96 2.413 1.64 3.96 1.64 2.947-.627 3.959-1.64 1.639-2.413 1.639-3.96S-1179.768-410.313-1180.78-411.327L-1180.78-411.327zM-1178.174-371.285c8.978 0 17.106 3.64 22.99 9.523 5.884 5.885 9.524 14.014 9.524 22.992 0 8.977-3.64 17.105-9.524 22.99-5.884 5.883-14.013 9.523-22.99 9.523s-17.106-3.641-22.991-9.523c-5.884-5.885-9.524-14.014-9.524-22.99 0-8.979 3.64-17.107 9.524-22.992C-1195.281-367.646-1187.152-371.285-1178.174-371.285L-1178.174-371.285zM-1163.668-353.277c-3.712-3.711-8.841-6.008-14.506-6.008-5.666 0-10.795 2.296-14.507 6.008-3.711 3.712-6.007 8.841-6.007 14.508 0 5.664 2.296 10.793 6.007 14.506 3.712 3.711 8.841 6.008 14.507 6.008s10.794-2.297 14.506-6.008c3.711-3.713 6.008-8.842 6.008-14.506C-1157.66-344.437-1159.957-349.565-1163.668-353.277L-1163.668-353.277zM-1221.328-404.563c6.25 0 11.91 2.534 16.008 6.631 4.097 4.098 6.631 9.758 6.631 16.008s-2.535 11.91-6.631 16.008c-4.098 4.097-9.757 6.631-16.008 6.631s-11.911-2.534-16.007-6.631c-4.097-4.098-6.631-9.758-6.631-16.008s2.534-11.91 6.631-16.008C-1233.238-402.028-1227.578-404.563-1221.328-404.563L-1221.328-404.563zM-1213.804-389.447c-1.925-1.925-4.585-3.115-7.523-3.115s-5.599 1.19-7.523 3.115-3.115 4.585-3.115 7.523 1.19 5.599 3.115 7.523c1.924 1.925 4.585 3.115 7.523 3.115s5.599-1.19 7.523-3.115 3.115-4.585 3.115-7.523S-1211.88-387.522-1213.804-389.447L-1213.804-389.447zM-974.225-181.549c-2.817 0-5.367 1.143-7.212 2.986-1.846 1.846-2.987 4.396-2.987 7.213s1.143 5.367 2.987 7.213c1.845 1.844 4.395 2.986 7.212 2.986s5.367-1.143 7.212-2.986c1.846-1.846 2.986-4.396 2.986-7.213s-1.141-5.367-2.986-7.213C-968.857-180.406-971.407-181.549-974.225-181.549L-974.225-181.549zM-989.921-187.045c4.018-4.018 9.567-6.504 15.696-6.504s11.68 2.486 15.696 6.504c4.018 4.016 6.503 9.566 6.503 15.695s-2.485 11.68-6.503 15.697c-4.017 4.018-9.567 6.502-15.696 6.502s-11.679-2.484-15.696-6.502-6.503-9.568-6.503-15.697S-993.938-183.029-989.921-187.045L-989.921-187.045zM-1019.607-145.779c-5.472 0-10.426 2.217-14.011 5.803-3.584 3.584-5.802 8.539-5.802 14.01 0 5.473 2.218 10.426 5.802 14.012 3.585 3.584 8.539 5.803 14.011 5.803 5.472 0 10.426-2.219 14.011-5.803 3.584-3.586 5.802-8.539 5.802-14.012 0-5.471-2.217-10.426-5.802-14.01C-1009.182-143.563-1014.136-145.779-1019.607-145.779L-1019.607-145.779zM-1042.103-148.461c5.757-5.758 13.711-9.318 22.495-9.318 8.784 0 16.737 3.561 22.495 9.318 5.757 5.758 9.318 13.711 9.318 22.494 0 8.785-3.562 16.738-9.318 22.496-5.758 5.756-13.711 9.318-22.495 9.318-8.784 0-16.738-3.563-22.495-9.318-5.757-5.758-9.318-13.711-9.318-22.496C-1051.421-134.75-1047.86-142.703-1042.103-148.461L-1042.103-148.461zM-1016.586-201.412c-1.462 0-2.786.592-3.743 1.549-.957.957-1.55 2.281-1.55 3.742 0 1.463.593 2.787 1.55 3.744.957.957 2.28 1.549 3.743 1.549 1.462 0 2.786-.592 3.743-1.549s1.55-2.281 1.55-3.744c0-1.461-.593-2.785-1.55-3.742S-1015.125-201.412-1016.586-201.412L-1016.586-201.412zM-1028.813-208.348c3.129-3.129 7.453-5.064 12.227-5.064s9.098 1.936 12.227 5.064c3.129 3.131 5.065 7.453 5.065 12.227 0 4.775-1.936 9.1-5.065 12.229s-7.453 5.064-12.227 5.064-9.098-1.936-12.227-5.064c-3.129-3.131-5.065-7.453-5.065-12.229C-1033.879-200.895-1031.943-205.217-1028.813-208.348L-1028.813-208.348z"/><polygon fill="white" stroke="#010101" stroke-miterlimit="2.613" stroke-width=".5" points="-1155.258 -294.002 -1175.083 -272.918 -1065.888 -162.148 -1045.749 -183.232 -1155.258 -294.002"/><path fill="white" d="M-95.316-563.402l-227.866,227.881c-2.343,2.342-6.142,2.342-8.484,0l-6.405-6.406l-6.406-6.406
		c-2.342-2.342-2.342-6.141,0-8.484l227.877-227.862l0.112-0.109c0.161-0.175,0.06-0.08,0.149-0.17l0.001,0
		c2.772-2.772,6.544-3.909,10.398-3.505c3.425,0.359,6.923,1.961,9.683,4.721l0.001,0.001l0.001,0.001
		c2.76,2.76,4.361,6.258,4.721,9.683c0.402,3.841-0.734,7.603-3.505,10.375l-0.012,0.012l0.012,0.011l-0.001,0
		c-0.111,0.112,0.021-0.029-0.276,0.25l-0.004,0.004L-95.316-563.402L-95.316-563.402z M-327.425-348.248l223.624-223.638
		l0.017,0.016c0.067-0.068,0.137-0.134,0.209-0.199l0.033-0.035c-0.025,0.02-0.036,0.028,0.021-0.026l0.005-0.005l-0.002-0.002
		c-0.053,0.047-0.11,0.096-0.007-0.007v0l0.008,0.007l-0.001,0l0.002,0.002l0.001,0l0.001,0.001l0.008-0.009
		c0.07-0.066,0.046-0.044,0.007-0.01c0.074-0.115,0.091-0.365,0.058-0.687c-0.081-0.772-0.521-1.64-1.299-2.417l-0.001-0.001
		l-0.001,0c-0.778-0.779-1.646-1.218-2.418-1.299c-0.342-0.036-0.602-0.011-0.694,0.083l-0.001,0l-0.004,0.004
		c-0.082,0.094-0.168,0.185-0.258,0.275l-223.635,223.622l2.163,2.163L-327.425-348.248L-327.425-348.248z M-103.506-572.144
		l0.007-0.01l-0.018,0.016l0.002,0.002L-103.506-572.144L-103.506-572.144z M-103.51-572.131L-103.51-572.131
		C-103.463-572.17-103.482-572.154-103.51-572.131L-103.51-572.131z"/><path fill="white" d="M-398.074-361.17l12.311-12.311c4.572-4.572,10.563-6.857,16.553-6.857s11.981,2.285,16.554,6.857
		l46.138,46.137v0.001c4.571,4.571,6.857,10.563,6.857,16.553s-2.286,11.981-6.857,16.552v0.001l-12.312,12.312
		c-2.343,2.343-6.142,2.343-8.484,0l-70.759-70.76C-400.418-355.027-400.418-358.827-398.074-361.17L-398.074-361.17z
		 M-377.279-364.996l-8.069,8.068l62.275,62.275l8.069-8.069l0,0c2.228-2.228,3.342-5.147,3.342-8.068s-1.114-5.842-3.342-8.069l0,0
		l-46.138-46.137c-2.228-2.229-5.147-3.342-8.069-3.342C-372.131-368.338-375.052-367.225-377.279-364.996L-377.279-364.996z"/><path fill="white" d="M-568.639-111.339l-0.012-0.012l-0.012-0.012l-0.004-0.004c-7.498-7.481-12.869-16.95-16.125-28.396
		c-3.157-11.103-4.32-24.099-3.497-38.979c0.144-2.615,1.944-4.745,4.327-5.428c40.221-13.047,68.297-52.217,91.662-84.818
		c10.479-14.62,20.045-27.968,29.604-37.526c17.156-17.156,29.294-26.178,40.129-34.232c8.324-6.187,15.843-11.775,24.491-20.425
		c2.343-2.342,6.142-2.342,8.484,0l35.38,35.381l35.38,35.38c2.343,2.343,2.343,6.142,0,8.484
		c-8.648,8.648-14.237,16.166-20.425,24.49c-8.054,10.836-17.076,22.974-34.232,40.129c-9.558,9.559-22.905,19.125-37.525,29.604
		c-18.307,13.121-38.662,27.71-55.209,44.957c-6.586,6.864-12.596,14.166-17.67,21.99c-5.021,7.742-9.139,16.012-12,24.895
		c-0.779,2.428-2.965,4.013-5.367,4.146v0.003c-14.88,0.823-27.877-0.34-38.979-3.497
		C-551.687-98.465-561.156-103.839-568.639-111.339L-568.639-111.339z M-573.26-143.043c2.699,9.488,7.05,17.232,13.059,23.22v0.001
		l0.023,0.022c5.988,6.01,13.731,10.36,23.221,13.06c8.861,2.52,19.211,3.6,31.043,3.246c3.086-8.437,7.167-16.34,11.99-23.776
		c5.521-8.514,12.006-16.401,19.076-23.771c17.398-18.136,38.17-33.021,56.85-46.41c14.189-10.169,27.143-19.454,36.026-28.337
		c16.707-16.707,25.372-28.364,33.106-38.771c5.488-7.384,10.531-14.167,17.384-21.532l-31.214-31.214l-31.214-31.214
		c-7.364,6.853-14.147,11.896-21.532,17.384c-10.406,7.735-22.063,16.4-38.77,33.107c-8.884,8.883-18.168,21.837-28.338,36.026
		c-23.691,33.058-52.023,72.585-93.957,87.916C-576.859-162.255-575.779-151.904-573.26-143.043L-573.26-143.043z"/><path fill="white" stroke="#010101" stroke-linecap="round" stroke-linejoin="round" stroke-miterlimit="2.613" stroke-width="12" d="
		M-337.896-300.413l-67.472,67.472 M-549.222-106.776l54.593-54.593 M-358.244-319.606l-33.736,33.736 M-377.742-339.938
		L-432.98-284.7 M-573.225-130.778l79.238-79.238"/><path fill="white" d="M-241.782-239.908c-0.906-3.185,0.94-6.501,4.125-7.407c3.184-0.905,6.5,0.941,7.406,4.125
		c2.848,9.97,8.901,18.59,16.975,24.675c7.87,5.932,17.676,9.448,28.316,9.448c10.64,0,20.446-3.517,28.315-9.448
		c8.074-6.086,14.128-14.706,16.976-24.675c0.906-3.184,4.222-5.03,7.406-4.125c3.185,0.906,5.031,4.223,4.125,7.407
		c-3.574,12.512-11.165,23.325-21.288,30.955c-9.899,7.462-22.208,11.886-35.534,11.886c-13.327,0-25.635-4.424-35.535-11.886
		C-230.617-216.583-238.208-227.396-241.782-239.908L-241.782-239.908z"/><path fill="white" d="M-104.227-254.235l-19.401,157.322c-0.371,3.044-2.962,5.274-5.953,5.271v0.003h-55.379h-55.379
		c-3.128,0-5.696-2.395-5.975-5.449l-19.406-157.356c-0.401-3.288,1.939-6.278,5.227-6.68c0.244-0.029,0.486-0.044,0.727-0.045
		v-0.002h74.807h74.806c3.314,0,6,2.687,6,6C-104.154-254.853-104.179-254.54-104.227-254.235L-104.227-254.235z M-134.884-103.64
		l17.947-145.531h-68.023h-68.024l17.948,145.531h50.076H-134.884L-134.884-103.64z"/><path fill="white" d="M-262.787-279.55h77.827h77.827c0.101,0,0.201,0.003,0.302,0.008c0.143-0.011-0.324-0.018,0.119-0.018
		c4.197,0,7.997,1.702,10.747,4.452c2.751,2.751,4.453,6.551,4.453,10.747s-1.702,7.996-4.453,10.747s-6.55,4.452-10.747,4.452
		c-0.482,0,0.366-0.009-0.352-0.026l-0.047-0.001v0.001h-0.022v0.017h-77.827h-77.827c-0.104,0-0.209-0.003-0.313-0.008
		c-0.228,0.012,0.294,0.018-0.109,0.018c-4.195,0-7.996-1.701-10.747-4.452c-2.75-2.751-4.452-6.551-4.452-10.747
		s1.702-7.996,4.452-10.747c2.751-2.75,6.552-4.452,10.747-4.452c0.556,0-0.301,0.011,0.353,0.026l0.046,0.002v-0.002l0.023,0.001
		V-279.55L-262.787-279.55z M-184.96-267.549h-77.827v-0.021c-0.063,0-0.125-0.001-0.188-0.003l-0.21-0.007v-0.001l-0.024-0.001
		v0.003c0.145,0.006,0.443,0.02,0,0.02c-0.884,0-1.685,0.358-2.263,0.937s-0.937,1.379-0.937,2.263s0.358,1.685,0.937,2.263
		s1.379,0.937,2.263,0.937h0.077c0.114-0.006,0.229-0.01,0.345-0.01h77.827h77.827v0.021c0.062,0.001,0.124,0.001,0.187,0.003
		l0.211,0.007v0.002h0.023v-0.004c-0.143-0.007-0.354-0.019,0-0.019c0.885,0,1.685-0.358,2.264-0.937
		c0.578-0.578,0.936-1.378,0.936-2.263c0-0.884-0.357-1.685-0.936-2.263c-0.579-0.578-1.379-0.937-2.264-0.937h-0.074
		c-0.114,0.006-0.23,0.011-0.347,0.011H-184.96L-184.96-267.549z M-106.712-261.139c0.163,0.004,0.098,0.001,0-0.004V-261.139
		L-106.712-261.139z M-263.209-267.582c-0.104-0.002-0.07,0,0,0.003V-267.582L-263.209-267.582z"/><path fill="none" stroke="#010101" stroke-miterlimit="2.613" stroke-width="12" d="M-314.748-158.23
		c15.171,0,27.469,12.298,27.469,27.469c0,15.17-12.298,27.469-27.469,27.469c-9.987,0-18.729-5.332-23.537-13.303
		c-2.538,1.567-5.529,2.473-8.73,2.473c-9.189,0-16.64-7.449-16.64-16.639s7.45-16.639,16.64-16.639c3.201,0,6.192,0.905,8.73,2.473
		C-333.478-152.899-324.735-158.23-314.748-158.23L-314.748-158.23z M-355.884-197.727c9.189,0,16.639,7.449,16.639,16.639
		s-7.449,16.639-16.639,16.639s-16.639-7.449-16.639-16.639S-365.073-197.727-355.884-197.727L-355.884-197.727z M-319.296-218.13
		c6.406,0,11.599,5.193,11.599,11.6c0,6.405-5.192,11.599-11.599,11.599s-11.6-5.193-11.6-11.599
		C-330.896-212.937-325.702-218.13-319.296-218.13L-319.296-218.13z M-172.707-329.748c-6.387,13.76-22.72,19.737-36.48,13.351
		c-13.761-6.386-19.738-22.719-13.352-36.479c4.205-9.06,12.722-14.744,21.977-15.75c-0.354-2.962,0.084-6.056,1.432-8.961
		c3.869-8.335,13.762-11.955,22.098-8.087c8.335,3.868,11.956,13.762,8.088,22.097c-1.349,2.905-3.429,5.236-5.919,6.879
		C-169.658-348.982-168.503-338.808-172.707-329.748L-172.707-329.748z M-119.563-350.434c-3.869,8.335-13.763,11.956-22.098,8.087
		c-8.335-3.868-11.956-13.762-8.088-22.097c3.869-8.336,13.762-11.957,22.098-8.088
		C-119.316-368.662-115.695-358.77-119.563-350.434L-119.563-350.434z M-116.46-308.657c-2.696,5.811-9.594,8.335-15.404,5.639
		c-5.811-2.697-8.335-9.594-5.638-15.404c2.697-5.812,9.594-8.335,15.404-5.639C-116.287-321.364-113.763-314.468-116.46-308.657
		L-116.46-308.657z"/><g><path fill="white" d="M173.705-492.358c-0.906-3.184,0.939-6.5,4.125-7.406c3.184-0.905,6.5,0.941,7.406,4.125
		c8.473,29.667,26.482,55.314,50.5,73.419c23.441,17.667,52.623,28.142,84.264,28.142s60.822-10.475,84.264-28.142
		c24.018-18.104,42.027-43.752,50.502-73.419c0.904-3.184,4.221-5.03,7.406-4.125c3.184,0.906,5.031,4.223,4.125,7.406
		c-9.201,32.21-28.748,60.053-54.814,79.7c-25.471,19.197-57.154,30.58-91.482,30.58s-66.01-11.383-91.48-30.58
		C202.451-432.307,182.904-460.148,173.705-492.358L173.705-492.358z"/><path fill="white" d="M138.434-383.178c0.4,3.287-1.939,6.278-5.227,6.68c-3.287,0.4-6.277-1.939-6.68-5.227l-18.379-149.041
		c-0.402-3.287,1.938-6.278,5.227-6.68c0.244-0.029,0.486-0.044,0.727-0.044v-0.003H525.9c3.313,0,6,2.687,6,6
		c0,0.318-0.025,0.631-0.074,0.937L478.381-97.17c-0.371,3.045-2.963,5.275-5.953,5.271v0.004H167.572
		c-3.127,0-5.695-2.395-5.975-5.449l-15.729-127.543c-0.4-3.289,1.939-6.279,5.227-6.68c3.287-0.402,6.279,1.938,6.68,5.227
		l15.1,122.443h294.25l51.992-421.596H120.883L138.434-383.178L138.434-383.178z M148.195-304.033c0.4,3.289-1.939,6.279-5.227,6.68
		c-3.289,0.402-6.279-1.938-6.68-5.227l-4.963-40.232c-0.4-3.287,1.939-6.279,5.227-6.68s6.279,1.939,6.68,5.227L148.195-304.033
		L148.195-304.033z"/><path fill="white" d="M105.787-588.077H320h214.213c.096 0 .191.002.285.007l.154-.004c.811-.021.371-.031.723-.031 8.648 0 16.479 3.507 22.146 9.175s9.174 13.498 9.174 22.146c0 8.648-3.506 16.479-9.174 22.146s-13.498 9.174-22.146 9.174c-.352 0 .088-.011-.723-.03l-.439-.012v.015H320 105.787c-.098 0-.193-.002-.289-.007l-.15.004c-.811.02-.371.03-.723.03-8.648 0-16.479-3.506-22.146-9.174s-9.174-13.498-9.174-22.146c0-8.647 3.506-16.478 9.174-22.146s13.5-9.175 22.146-9.175c.352 0-.088.011.723.031l.439.012V-588.077L105.787-588.077zM320-576.077H105.787v-.019c-.086 0-.172-.002-.258-.005l-.463-.021c-.424-.011.301.017-.441.017-5.336 0-10.166 2.162-13.662 5.657-3.496 3.496-5.658 8.327-5.658 13.662 0 5.336 2.162 10.167 5.658 13.662 3.496 3.496 8.326 5.658 13.662 5.658.736 0 .025.026.436.017.238-.029.48-.044.727-.044H320h214.213v.019c.086 0 .172.001.258.005l.463.021c.424.01-.299-.017.441-.017 5.336 0 10.166-2.162 13.662-5.658 3.496-3.495 5.658-8.326 5.658-13.662 0-5.335-2.162-10.166-5.658-13.662-3.496-3.495-8.326-5.657-13.662-5.657-.736 0-.025-.026-.436-.017-.238.028-.48.044-.727.044H320L320-576.077zM151.082-310.303c12.521 0 23.859 5.076 32.066 13.283 8.205 8.207 13.283 19.543 13.283 32.066 0 12.521-5.078 23.859-13.283 32.066-8.207 8.205-19.545 13.283-32.066 13.283s-23.859-5.078-32.066-13.283c-8.207-8.207-13.283-19.545-13.283-32.066 0-12.523 5.076-23.859 13.283-32.066S138.559-310.303 151.082-310.303L151.082-310.303zM174.664-288.537c-6.035-6.033-14.373-9.766-23.582-9.766-9.211 0-17.549 3.732-23.582 9.766-6.035 6.035-9.768 14.373-9.768 23.584 0 9.209 3.732 17.547 9.768 23.582 6.033 6.033 14.371 9.766 23.582 9.766 9.209 0 17.547-3.732 23.582-9.766 6.033-6.035 9.768-14.373 9.768-23.582C184.432-274.164 180.697-282.502 174.664-288.537L174.664-288.537zM258.449-247.389c-.238-.006-.096.008-1.152.008-15.66 0-29.836 6.348-40.098 16.607-10.262 10.262-16.607 24.438-16.607 40.098 0 15.658 6.348 29.836 16.607 40.096 10.262 10.262 24.438 16.607 40.098 16.607 15.658 0 29.834-6.346 40.096-16.607C307.652-160.84 314-175.018 314-190.676c0-3.957-.381-7.738-1.104-11.318-.754-3.732-1.883-7.346-3.342-10.795l-2.285-5.395 5.379-2.387c5.924-2.629 10.947-6.949 14.463-12.354 3.387-5.207 5.354-11.445 5.354-18.166 0-9.211-3.732-17.549-9.768-23.582-6.033-6.035-14.373-9.768-23.582-9.768-8.879 0-16.943 3.459-22.914 9.1-6.004 5.674-9.902 13.553-10.395 22.344l-.328 5.881-5.883-.232C259.076-247.369 258.674-247.383 258.449-247.389L258.449-247.389zM254.531-259.326c1.775-9.662 6.611-18.256 13.467-24.732 8.125-7.676 19.076-12.381 31.117-12.381 12.521 0 23.859 5.076 32.066 13.283s13.283 19.545 13.283 32.066c0 9.082-2.691 17.559-7.322 24.682-3.734 5.74-8.744 10.584-14.633 14.137.854 2.578 1.559 5.225 2.105 7.934.908 4.494 1.385 9.064 1.385 13.662 0 18.971-7.691 36.146-20.123 48.58-12.434 12.434-29.609 20.123-48.58 20.123-18.973 0-36.148-7.689-48.582-20.123s-20.123-29.609-20.123-48.58 7.689-36.148 20.123-48.58C220.541-251.082 236.658-258.617 254.531-259.326L254.531-259.326zM207.646-366.43c9.23 0 17.59 3.743 23.639 9.793 6.051 6.051 9.793 14.408 9.793 23.639s-3.742 17.59-9.793 23.639c-6.049 6.051-14.408 9.793-23.639 9.793s-17.588-3.742-23.639-9.793c-6.049-6.049-9.791-14.408-9.791-23.639s3.742-17.588 9.791-23.639C190.059-362.687 198.416-366.43 207.646-366.43L207.646-366.43zM222.801-348.152c-3.877-3.877-9.234-6.276-15.154-6.276-5.918 0-11.275 2.398-15.154 6.276-3.877 3.878-6.275 9.236-6.275 15.154 0 5.92 2.398 11.277 6.275 15.154 3.877 3.879 9.236 6.277 15.154 6.277 5.92 0 11.277-2.398 15.154-6.277 3.879-3.877 6.277-9.234 6.277-15.154C229.078-338.916 226.68-344.275 222.801-348.152L222.801-348.152zM140.854-390.234c7.318 0 13.943 2.967 18.74 7.764 4.797 4.796 7.764 11.422 7.764 18.739s-2.967 13.944-7.764 18.74-11.422 7.763-18.74 7.763-13.943-2.967-18.74-7.763c-4.795-4.796-7.764-11.423-7.764-18.74s2.969-13.943 7.764-18.739C126.91-387.268 133.535-390.234 140.854-390.234L140.854-390.234zM151.109-373.987c-2.623-2.624-6.25-4.247-10.256-4.247s-7.631 1.623-10.256 4.247c-2.623 2.624-4.248 6.251-4.248 10.256 0 4.006 1.625 7.632 4.248 10.257 2.625 2.623 6.25 4.246 10.256 4.246s7.633-1.623 10.256-4.246c2.625-2.625 4.248-6.251 4.248-10.257C155.357-367.736 153.734-371.363 151.109-373.987L151.109-373.987z"/></g><g><path fill="white" d="M1154.232-527.598c1.471 4.63.934 9.41-1.129 13.392-2.066 3.993-5.664 7.201-10.303 8.676-4.631 1.472-9.41.933-13.393-1.127-3.992-2.067-7.201-5.665-8.676-10.303-1.471-4.631-.932-9.41 1.129-13.392 2.066-3.994 5.664-7.201 10.303-8.676 4.631-1.472 9.41-.933 13.393 1.127C1149.551-535.834 1152.758-532.236 1154.232-527.598L1154.232-527.598zM1142.463-519.69c.668-1.29.846-2.825.379-4.299-.467-1.466-1.492-2.609-2.77-3.271-1.291-.667-2.826-.846-4.299-.378-1.467.466-2.609 1.491-3.271 2.77-.668 1.29-.846 2.825-.379 4.298.467 1.467 1.492 2.61 2.77 3.271 1.291.667 2.826.846 4.299.378C1140.658-517.387 1141.801-518.411 1142.463-519.69L1142.463-519.69zM1039.59-180.581c.213-4.845 2.377-9.149 5.701-12.193 3.322-3.041 7.795-4.816 12.633-4.604 4.844.214 9.148 2.377 12.191 5.701 3.041 3.322 4.816 7.796 4.604 12.632-.213 4.845-2.377 9.149-5.699 12.193-3.322 3.041-7.797 4.816-12.633 4.603-4.846-.213-9.15-2.376-12.193-5.7C1041.152-171.271 1039.377-175.745 1039.59-180.581L1039.59-180.581zM1053.354-183.962c-1.055.965-1.742 2.341-1.811 3.896-.068 1.563.496 2.998 1.463 4.055.965 1.055 2.34 1.741 3.896 1.81 1.563.069 2.998-.495 4.055-1.462 1.055-.966 1.74-2.341 1.809-3.896.068-1.563-.496-2.999-1.463-4.056-.965-1.054-2.34-1.741-3.895-1.81C1055.846-185.493 1054.41-184.929 1053.354-183.962L1053.354-183.962zM1105.063-505.077c2.721 8.556 1.721 17.394-2.096 24.767-3.82 7.383-10.467 13.312-19.029 16.034-8.557 2.72-17.395 1.719-24.768-2.096-7.383-3.821-13.313-10.467-16.033-19.03v-.001c-2.721-8.555-1.721-17.394 2.096-24.766 3.82-7.383 10.467-13.312 19.029-16.034l0 0c8.557-2.72 17.395-1.72 24.768 2.096C1096.412-520.286 1102.342-513.64 1105.063-505.077L1105.063-505.077zM1092.326-485.795c2.422-4.68 3.063-10.274 1.346-15.673-1.713-5.391-5.459-9.582-10.127-11.999-4.68-2.422-10.275-3.062-15.674-1.346l0 0c-5.393 1.714-9.582 5.459-11.998 10.128-2.422 4.68-3.063 10.274-1.346 15.673v0c1.713 5.391 5.459 9.582 10.127 11.998 4.68 2.422 10.275 3.062 15.674 1.346C1085.719-477.381 1089.91-481.126 1092.326-485.795L1092.326-485.795zM1054.527-489.011L1054.527-489.011 1054.527-489.011 1054.527-489.011zM1043.137-485.402L1043.137-485.402 1043.137-485.402 1043.137-485.402zM1067.871-514.813L1067.871-514.813 1067.871-514.813 1067.871-514.813zM1064.262-526.203L1064.262-526.203 1064.262-526.203 1064.262-526.203zM1093.508-184.777c.395-8.959 4.391-16.916 10.529-22.536 6.139-5.619 14.41-8.897 23.361-8.504 8.959.396 16.916 4.391 22.537 10.529 5.619 6.138 8.896 14.41 8.504 23.361-.395 8.959-4.391 16.916-10.529 22.537-6.139 5.619-14.41 8.897-23.361 8.503-8.959-.395-16.916-4.391-22.537-10.529C1096.393-167.554 1093.113-175.826 1093.508-184.777L1093.508-184.777zM1112.1-198.502c-3.869 3.543-6.389 8.57-6.639 14.24-.25 5.677 1.818 10.912 5.363 14.783 3.543 3.87 8.57 6.389 14.24 6.639 5.676.25 10.91-1.817 14.783-5.362 3.869-3.543 6.389-8.57 6.639-14.24.25-5.677-1.818-10.911-5.363-14.783-3.543-3.869-8.57-6.389-14.24-6.639C1121.207-204.114 1115.973-202.046 1112.1-198.502L1112.1-198.502zM1112.313-552.675l-.002-.001c-.887-2.792-2.83-4.965-5.254-6.22-2.436-1.26-5.344-1.595-8.143-.705l0 0c-2.793.888-4.965 2.832-6.221 5.256-1.26 2.435-1.594 5.342-.705 8.142.889 2.792 2.832 4.965 5.256 6.22 2.436 1.26 5.344 1.595 8.143.705l0 0c2.793-.888 4.965-2.832 6.221-5.256C1112.867-546.968 1113.201-549.875 1112.313-552.675L1112.313-552.675zM1123.703-556.283c1.893 5.957 1.199 12.107-1.455 17.234-2.66 5.139-7.287 9.266-13.252 11.163l0 0c-5.957 1.894-12.107 1.199-17.236-1.455-5.139-2.66-9.266-7.288-11.162-13.252-1.893-5.957-1.199-12.108 1.455-17.235 2.66-5.139 7.287-9.266 13.252-11.162l0 0c5.957-1.894 12.107-1.199 17.236 1.455 5.139 2.66 9.266 7.288 11.162 13.251V-556.283L1123.703-556.283zM1105.387-539.277L1105.387-539.277 1105.387-539.277 1105.387-539.277zM1108.996-527.886L1108.996-527.886 1108.996-527.886 1108.996-527.886zM1098.914-559.6L1098.914-559.6 1098.914-559.6 1098.914-559.6zM1095.305-570.991L1095.305-570.991 1095.305-570.991 1095.305-570.991zM1058.363-143.131c.273-6.234 3.057-11.773 7.332-15.688 4.273-3.912 10.029-6.195 16.258-5.921 6.234.274 11.773 3.058 15.688 7.332 3.912 4.273 6.195 10.031 5.922 16.258-.275 6.234-3.059 11.773-7.334 15.688-4.273 3.912-10.029 6.194-16.256 5.921-6.234-.274-11.773-3.057-15.689-7.332C1060.371-131.147 1058.088-136.904 1058.363-143.131L1058.363-143.131zM1073.758-150.007c-2.006 1.836-3.313 4.446-3.441 7.392-.131 2.953.941 5.672 2.779 7.68 1.836 2.005 4.447 3.312 7.391 3.441 2.953.13 5.672-.942 7.68-2.78 2.006-1.837 3.313-4.446 3.443-7.392.129-2.952-.943-5.672-2.781-7.68-1.836-2.006-4.445-3.312-7.391-3.441C1078.484-152.917 1075.766-151.845 1073.758-150.007L1073.758-150.007zM898.809-583.936c5.16 1.18 9.357 4.342 11.967 8.5 2.617 4.167 3.645 9.325 2.465 14.489v.001c-4.178 17.994-7.955 34.674-11.729 51.346-1.74 7.685-3.477 15.356-4.992 22.032 4.994-11.934 9.996-23.87 14.998-35.803 6.424-15.328 12.848-30.653 19.25-45.967 2.045-4.891 5.881-8.492 10.43-10.358 4.553-1.868 9.805-2.004 14.68.033 4.891 2.045 8.49 5.881 10.357 10.429 1.867 4.551 2.004 9.805-.033 14.679-4.818 11.525-9.633 23.063-14.447 34.604 2.58-5.399 5.6-11.721 9.283-19.441l.021.01.002-.01c2.293-4.79 6.297-8.195 10.918-9.825 4.621-1.63 9.871-1.494 14.66.797l.004.001c4.791 2.291 8.195 6.296 9.826 10.917 1.605 4.547 1.496 9.709-.691 14.438-4.455 12.159-14.105 29.612-19.986 41.933-1.416 2.965-3.764 7.86-18.867 39.437 2.988-4.107 8.592-11.785 18.086-24.823 4.043-5.549 8.072-11.084 22.357-30.767 2.807-3.865 6.924-6.228 11.307-6.923 4.385-.695 9.027.275 12.887 3.077v0c3.863 2.806 6.227 6.922 6.922 11.306 1.371 8.636-3.734 13.782-8.309 20.096-1.475 2.034-2.949 4.071-4.422 6.107l-5.662-2.397-4.85-3.516c3.482-4.815 6.969-9.629 10.463-14.437v0c.875-1.204 1.18-2.637.967-3.979-.213-1.342-.943-2.608-2.141-3.477v0c-1.205-.875-2.639-1.181-3.98-.968s-2.607.944-3.479 2.142c-13.867 19.111-27.799 38.179-41.676 57.283l-.023.023c-3.221 4.393-7.141 6.065-10.793 5.95-2.023-.063-3.887-.68-5.48-1.706-1.504-.966-2.773-2.311-3.707-3.899-1.975-3.354-2.432-7.854-.291-12.09l.008.003c2.766-5.786 5.221-10.95 19.855-41.6 6.641-13.907 13.275-27.814 19.902-41.707l.02.009.004-.01c.857-1.789.902-3.77.283-5.522-.619-1.752-1.896-3.265-3.686-4.121v0c-1.789-.856-3.77-.901-5.523-.282-1.723.607-3.213 1.853-4.076 3.595l-.021.09c-3.109 6.519-12.219 25.497-21.273 44.364-5.373 11.194-10.746 22.39-16.1 33.584l-.281.539c-2.418 3.938-5.686 5.915-8.791 6.321-1.904.249-3.721-.061-5.322-.858-1.58-.786-2.91-2.033-3.867-3.667-1.604-2.744-2.063-6.606-.43-10.932l.07-.188c6.564-15.703 13.121-31.423 19.676-47.139 6.529-15.655 13.057-31.308 19.592-46.939.775-1.854.73-3.835.033-5.538-.699-1.706-2.053-3.146-3.889-3.914-1.855-.776-3.838-.732-5.539-.033-1.705.7-3.145 2.052-3.914 3.89-6.402 15.314-12.826 30.64-19.25 45.967-6.363 15.182-12.729 30.368-19.076 45.549l-.047.07c-1.676 3.866-4.854 5.875-8.301 6.343l.002.003c-1.691.227-3.418.058-5.014-.462-1.588-.517-3.092-1.395-4.354-2.589-2.58-2.445-4.092-6.088-3.178-10.531l.023-.141c2.959-12.943 5.084-22.332 7.203-31.69 3.986-17.612 7.975-35.223 11.729-51.394l0 0c.445-1.946.061-3.884-.918-5.443-.982-1.566-2.564-2.758-4.514-3.204h-.002c-1.945-.445-3.883-.062-5.441.917-1.566.983-2.758 2.566-3.203 4.515-.537 2.335-1.334 6.157-2.369 11.131-7.697 36.978-27.891 133.963-49.832 132.046l-3.838-.336-1.295-3.648c-1.805-5.09-4.932-13.823-8.059-22.553-3.881-10.834-7.764-21.678-12.564-35.409l-.006.002c-.912-2.571-2.791-4.535-5.09-5.63s-5.016-1.314-7.602-.397c-2.572.912-4.535 2.791-5.631 5.088-1.094 2.299-1.313 5.015-.396 7.601l.768 2.167c9.49 26.809 19.713 55.68 11.135 85.266-4.98 17.182 5.988 46.854 13.527 63.201-11.986 28.65-25.703 58.771-41.25 85.821l-8.352 2.424-5.156-3.047c18.414-31.022 37.221-74.501 41.691-85.02-4.133-9.541-18.293-44.812-11.945-66.707 7.498-25.858-2.066-52.871-10.947-77.954l-.768-2.167c-2.021-5.703-1.543-11.683.867-16.741 2.41-5.059 6.758-9.202 12.473-11.229 5.703-2.022 11.684-1.542 16.742.867 5.059 2.41 9.201 6.759 11.229 12.474v.023c3.436 9.825 8.004 22.579 12.572 35.336 1.801 5.03 3.602 10.059 6.039 16.911 11.398-12.427 27.488-89.69 33.969-120.826 1.076-5.169 1.904-9.142 2.416-11.366 1.18-5.161 4.342-9.357 8.5-11.968C888.484-584.088 893.643-585.116 898.809-583.936L898.809-583.936z"/><path fill="white" d="M1194.707-427.384c5.34-2.828,11.332-3.222,16.697-1.571c5.367,1.651,10.107,5.352,12.945,10.709l0,0
		c2.828,5.342,3.221,11.33,1.57,16.697s-5.352,10.107-10.709,12.944l0,0c-6.891,3.648-30.594,16.229-54.326,28.823
		c-7.859,4.17-15.662,8.312-27.566,14.621c6.168-2.877,9.354-4.359,12.527-5.836c22.145-10.305,44.303-20.615,54.08-25.193
		c5.492-2.564,11.498-2.664,16.764-0.75c5.271,1.916,9.814,5.846,12.379,11.335v0.001c2.564,5.492,2.662,11.496,0.75,16.764
		c-1.916,5.271-5.846,9.813-11.336,12.376v0.001c-16.832,7.88-33.682,15.769-50.537,23.652
		c-16.855,7.886-33.717,15.769-50.57,23.638l-0.117,0.071c-0.779,0.343-1.211,0.909-1.295,1.452
		c-0.021,0.132-0.021,0.248-0.002,0.34c0.32,0.188,1.135,0.168,2.604-0.207l0.004,0.017c12.656-3.296,25.326-6.579,37.992-9.861
		c14.936-3.869,29.867-7.739,44.771-11.627c5.246-1.367,10.555-0.476,14.895,2.07c4.342,2.546,7.713,6.75,9.082,12.006
		c1.367,5.245,0.477,10.554-2.07,14.895c-2.547,4.342-6.75,7.713-12.006,9.082c-6.543,1.702-16.664,4.36-26.779,7.018
		c-6.441,1.691-12.893,3.386-23.865,6.246l0.002,0.005c-0.49,0.131-0.809,0.2-1.242,0.295c-5.234,1.141-27.91,6.085-66.088,29.597
		c-18.652,11.487-43.996,20.822-67.869,27.404c-29.832,8.225-58.033,12.101-68.578,10.586c-11.779,4.509-44.279,23.246-75.92,42.858
		c-32.768,20.31-64.313,41.355-70.564,48.238c-4.762,5.243-11.209,3.604-18.502-3.02c-10.965-9.96-27.115-34.277-40.232-59.434
		c-13.254-25.417-23.566-52.105-22.678-66.547c0.609-9.877,5.203-15.552,15.141-14.939c31.604,1.946,130.854-49.22,147.164-57.755
		c3.174-11.207,16.951-55.686,39.639-71.232c27.154-18.611,39.002-51.323,50.004-81.697l0.943-2.608
		c2.363-6.538,7.164-11.503,13.014-14.245c5.84-2.739,12.727-3.25,19.27-0.884c6.537,2.364,11.502,7.164,14.244,13.013
		c2.738,5.841,3.25,12.727,0.885,19.27v0.024c-4.908,13.382-10.131,27.97-15.354,42.554c-2.15,6.004-4.307,12.025-7.922,22.037
		c19.203-0.242,96.148-62.177,126.828-86.873c4.84-3.895,8.559-6.889,10.951-8.734c4.783-3.699,10.617-5.109,16.182-4.398
		c5.576,0.712,10.875,3.547,14.578,8.336c3.699,4.784,5.109,10.619,4.398,16.183c-0.711,5.575-3.547,10.875-8.336,14.578
		l-0.023,0.023c-15.307,11.754-32.787,25.333-50.264,38.908c-7.637,5.932-15.305,11.886-30.951,23.987l0.01,0.013
		c-0.225,0.183-0.313,0.311-0.305,0.38c0.012,0.088,0.033,0.164,0.064,0.224c17.539-9.287,35.096-18.565,52.65-27.841
		C1159.398-408.705,1177.066-418.042,1194.707-427.384L1194.707-427.384z M1207.889-417.518c-2.434-0.749-5.162-0.565-7.604,0.728
		c-17.641,9.342-35.311,18.679-52.98,28.017c-17.645,9.323-35.295,18.65-52.924,27.985l-0.07,0.024
		c-4.086,2.094-8.148,1.584-11.363-0.408c-1.58-0.979-2.928-2.329-3.93-3.898c-1.006-1.576-1.68-3.369-1.912-5.227
		c-0.484-3.872,0.779-8.018,4.664-11.161l0.117-0.07c4.979-3.849,17.98-13.948,31.012-24.071
		c16.039-12.459,32.08-24.918,50.357-38.953l0.004,0.003c2.162-1.683,3.441-4.077,3.762-6.589c0.324-2.531-0.32-5.188-2.008-7.371
		c-1.684-2.178-4.086-3.467-6.609-3.79c-2.529-0.323-5.188,0.321-7.371,2.008c-2.08,1.605-5.852,4.642-10.762,8.594
		c-35.285,28.404-127.824,102.892-146.053,85.042l-2.738-2.683l1.309-3.621c1.752-4.847,5.762-16.041,9.779-27.262
		c4.969-13.877,9.941-27.761,15.4-42.648l0.008,0.002c1.234-3.435,0.965-7.046-0.471-10.108c-1.436-3.061-4.047-5.579-7.494-6.825
		c-3.441-1.244-7.061-0.977-10.129,0.462c-3.063,1.435-5.578,4.047-6.826,7.495l-0.945,2.609
		c-11.633,32.121-24.162,66.714-54.504,87.509c-22.273,15.265-35.479,66.785-35.518,66.935l-0.664,2.561l-2.336,1.235
		c-0.34,0.18-117.953,62.646-155.736,60.319c-1.576-0.098-2.336,1.298-2.484,3.689c-0.75,12.17,8.928,36.551,21.318,60.313
		c12.527,24.024,27.68,47.002,37.701,56.104c1.732,1.573,0.758,4.722,1.58,3.816c6.963-7.664,39.564-29.535,73.143-50.348
		c33.684-20.879,68.65-40.896,79.9-44.58l3.773,0.023c6.172,2.09,33.545-1.873,63.918-10.247
		c22.969-6.333,47.209-15.227,64.775-26.045c40.012-24.641,64.244-29.924,69.838-31.144c0.48-0.104,0.633-0.129,0.727-0.153h0.023
		c4.916-1.281,14.375-3.767,23.84-6.252c7.766-2.04,15.523-4.077,26.826-7.017c2.055-0.535,3.697-1.854,4.693-3.552
		c0.996-1.698,1.344-3.782,0.805-5.848c-0.535-2.054-1.854-3.698-3.551-4.693c-1.699-0.996-3.783-1.344-5.848-0.806
		c-14.904,3.889-29.836,7.758-44.771,11.628c-12.676,3.284-25.355,6.57-38.02,9.868l-0.023,0.023
		c-5.908,1.511-10.459,0.197-13.496-2.463c-1.656-1.45-2.801-3.267-3.439-5.255c-0.602-1.869-0.744-3.886-0.432-5.868
		c0.672-4.276,3.453-8.467,8.279-10.594l0.006,0.014c16.813-7.851,33.633-15.715,50.447-23.58
		c16.855-7.885,33.705-15.773,50.537-23.653l0,0c2.49-1.162,4.275-3.229,5.146-5.627c0.875-2.405,0.834-5.137-0.326-7.623l0,0
		c-1.164-2.491-3.23-4.275-5.629-5.148c-2.404-0.873-5.137-0.834-7.623,0.328c-26.211,12.271-40.139,18.753-54.08,25.24
		c-20.848,9.7-39.373,18.317-40.514,18.851l-0.586,0.234c-4.881,1.686-9.055,1.106-11.955-0.703c-1.73-1.079-3.023-2.583-3.82-4.363
		c-0.779-1.741-1.041-3.679-0.721-5.668c0.551-3.44,2.895-7.057,7.387-9.642l0.188-0.116c6.877-3.642,30.701-16.285,54.373-28.847
		c12.512-6.641,25.047-13.293,54.373-28.823h0.002c2.424-1.284,4.1-3.433,4.848-5.866c0.75-2.435,0.566-5.162-0.727-7.604l0,0
		C1212.471-415.094,1210.322-416.77,1207.889-417.518L1207.889-417.518z M1213.756-412.668L1213.756-412.668L1213.756-412.668
		L1213.756-412.668z M1224.35-418.246L1224.35-418.246L1224.35-418.246L1224.35-418.246z M1209.633-399.198h0.002H1209.633
		L1209.633-399.198z M1215.211-388.604L1215.211-388.604L1215.211-388.604L1215.211-388.604z"/></g><g><path fill="white" d="M-755.979,95.92l-306.773,306.788c-2.343,2.343-6.142,2.343-8.483,0l-11.475-11.474
		c-2.342-2.343-2.342-6.142,0-8.484l306.785-306.77c0.049-0.049,0.099-0.097,0.148-0.143c0.193-0.208-0.011-0.01,0.142-0.163
		c2.756-2.756,6.368-4.135,9.979-4.135s7.224,1.379,9.979,4.135s4.134,6.368,4.134,9.979c0,3.611-1.378,7.224-4.134,9.979
		c-0.239,0.239,0.101-0.111-0.268,0.241l-0.043,0.04L-755.979,95.92L-755.979,95.92z M-1066.993,389.982l302.53-302.546l0.018,0.018
		c0.07-0.07,0.143-0.138,0.217-0.206l0.042-0.039l0,0c-0.024,0.021-0.182,0.158-0.007-0.008l0.044-0.042l-0.002-0.001
		c-0.07,0.065-0.225,0.207-0.009-0.009c0.412-0.412,0.618-0.954,0.618-1.495c0-0.541-0.206-1.083-0.618-1.495
		s-0.954-0.619-1.495-0.619s-1.083,0.207-1.495,0.619l-0.043,0.042c-0.079,0.09-0.162,0.178-0.248,0.264l-302.542,302.527
		L-1066.993,389.982L-1066.993,389.982z M-764.149,87.159c0.047-0.045,0.031-0.031-0.002-0.001L-764.149,87.159L-764.149,87.159z
		 M-764.187,87.209C-764.182,87.206-764.183,87.206-764.187,87.209L-764.187,87.209L-764.187,87.209z"/><path fill="white" d="M-1148.587,391.606l37.367-37.366c2.342-2.343,6.141-2.343,8.484,0l68.494,68.494
		c2.342,2.342,2.342,6.142,0,8.483l-37.367,37.367c-2.343,2.343-6.142,2.343-8.484,0l-68.494-68.494
		C-1150.929,397.748-1150.929,393.949-1148.587,391.606L-1148.587,391.606z M-1106.978,366.966l-28.883,28.883l60.01,60.01
		l28.883-28.882L-1106.978,366.966L-1106.978,366.966z"/><path fill="white" d="M-1114.34,434.338l-32.188-32.188l-82.975,10.003l68.674,68.675l68.675,68.675l10.003-82.976
		L-1114.34,434.338L-1114.34,434.338z M-1140.103,391.606l34.247,34.247l34.247,34.247l-0.004,0.004
		c1.252,1.253,1.938,3.046,1.715,4.941l-11.803,97.906c-0.111,1.367-0.689,2.705-1.736,3.751c-2.342,2.343-6.142,2.343-8.484,0
		l-77.393-77.392l-77.392-77.393l0.003-0.004c-0.92-0.919-1.55-2.143-1.714-3.535c-0.388-3.288,1.962-6.269,5.25-6.656
		l97.872-11.798C-1143.46,389.633-1141.517,390.193-1140.103,391.606L-1140.103,391.606z"/><path fill="white" d="M-1240.424 413.302c-3.106 1.126-6.538-.479-7.664-3.586s.479-6.538 3.586-7.664l135.485-49.194c3.106-1.126 6.538.479 7.664 3.586 1.125 3.106-.48 6.538-3.586 7.664L-1240.424 413.302-1240.424 413.302zM-1082.054 564.5c-1.125 3.106-4.557 4.712-7.664 3.586-3.105-1.126-4.712-4.558-3.586-7.664l49.195-135.484c1.125-3.106 4.557-4.712 7.664-3.587 3.105 1.126 4.711 4.558 3.586 7.664L-1082.054 564.5-1082.054 564.5zM-1005.062 442.982c-2.45 0-4.668.992-6.273 2.597-1.604 1.604-2.598 3.823-2.598 6.273s.993 4.668 2.598 6.272c1.605 1.604 3.823 2.598 6.273 2.598 2.451 0 4.668-.993 6.272-2.598s2.598-3.822 2.598-6.272-.993-4.669-2.598-6.273S-1002.61 442.982-1005.062 442.982L-1005.062 442.982zM-1019.819 437.096c3.777-3.777 8.995-6.114 14.758-6.114 5.762 0 10.979 2.337 14.757 6.114 3.776 3.777 6.113 8.995 6.113 14.757s-2.337 10.979-6.113 14.757c-3.777 3.776-8.995 6.113-14.757 6.113s-10.98-2.337-14.758-6.113c-3.776-3.777-6.113-8.995-6.113-14.757S-1023.596 440.873-1019.819 437.096L-1019.819 437.096zM-1009.616 497.169c-7.73 0-14.729 3.134-19.794 8.198-5.065 5.065-8.198 12.063-8.198 19.795 0 7.73 3.133 14.729 8.198 19.794s12.063 8.198 19.794 8.198 14.729-3.133 19.794-8.198c5.065-5.065 8.198-12.063 8.198-19.794 0-7.731-3.133-14.729-8.198-19.795C-994.887 500.303-1001.886 497.169-1009.616 497.169L-1009.616 497.169zM-1037.894 496.884c7.236-7.237 17.235-11.715 28.277-11.715 11.043 0 21.041 4.478 28.278 11.715s11.714 17.235 11.714 28.278c0 11.042-4.477 21.041-11.714 28.278s-17.236 11.714-28.278 11.714c-11.041 0-21.041-4.477-28.277-11.714-7.238-7.237-11.715-17.236-11.715-28.278C-1049.608 514.119-1045.132 504.121-1037.894 496.884L-1037.894 496.884zM-1221.442 530.198c-3.492 0-6.653 1.416-8.94 3.703s-3.702 5.448-3.702 8.94 1.415 6.653 3.702 8.94 5.448 3.703 8.94 3.703 6.654-1.416 8.941-3.703 3.702-5.448 3.702-8.94-1.415-6.653-3.702-8.94C-1214.788 531.613-1217.95 530.198-1221.442 530.198L-1221.442 530.198zM-1238.866 525.417c4.459-4.46 10.62-7.219 17.424-7.219 6.805 0 12.965 2.759 17.426 7.219 4.459 4.46 7.218 10.621 7.218 17.425s-2.759 12.965-7.219 17.425c-4.459 4.46-10.62 7.219-17.425 7.219-6.804 0-12.965-2.759-17.424-7.219-4.461-4.46-7.219-10.621-7.219-17.425S-1243.327 529.876-1238.866 525.417L-1238.866 525.417zM-1219.032 464.869c-4.771 0-9.091 1.935-12.217 5.061s-5.061 7.445-5.061 12.217 1.934 9.092 5.061 12.218c3.126 3.126 7.445 5.06 12.217 5.06s9.092-1.935 12.217-5.061c3.127-3.125 5.061-7.445 5.061-12.217s-1.934-9.091-5.061-12.217C-1209.94 466.804-1214.261 464.869-1219.032 464.869L-1219.032 464.869zM-1239.733 461.445c5.299-5.299 12.617-8.576 20.701-8.576s15.403 3.278 20.701 8.576c5.299 5.298 8.576 12.617 8.576 20.701s-3.277 15.403-8.576 20.701c-5.298 5.299-12.617 8.576-20.701 8.576s-15.402-3.277-20.701-8.576c-5.299-5.298-8.576-12.617-8.576-20.701S-1245.032 466.743-1239.733 461.445L-1239.733 461.445zM-955.458 463.679c-4.234 0-8.068 1.716-10.842 4.49-2.773 2.773-4.489 6.607-4.489 10.842s1.716 8.067 4.489 10.841c2.774 2.773 6.607 4.49 10.842 4.49 4.233 0 8.067-1.717 10.842-4.49 2.773-2.773 4.489-6.606 4.489-10.841s-1.716-8.068-4.489-10.842C-947.391 465.395-951.224 463.679-955.458 463.679L-955.458 463.679zM-974.784 459.685c4.946-4.946 11.779-8.006 19.326-8.006 7.546 0 14.379 3.06 19.325 8.006s8.006 11.779 8.006 19.326c0 7.546-3.06 14.379-8.006 19.325s-11.779 8.006-19.325 8.006-14.379-3.06-19.326-8.006c-4.946-4.946-8.006-11.779-8.006-19.325C-982.79 471.464-979.73 464.631-974.784 459.685L-974.784 459.685zM-1176.126 529.845c-1.574 0-3 .638-4.031 1.669-1.03 1.03-1.668 2.456-1.668 4.03s.638 3 1.668 4.03c1.031 1.03 2.457 1.669 4.031 1.669s3-.639 4.03-1.669 1.669-2.456 1.669-4.03-.639-3-1.669-4.03C-1173.126 530.482-1174.552 529.845-1176.126 529.845L-1176.126 529.845zM-1188.642 523.029c3.203-3.203 7.629-5.185 12.516-5.185s9.311 1.981 12.514 5.185 5.186 7.628 5.186 12.515-1.982 9.312-5.186 12.515-7.627 5.185-12.514 5.185-9.313-1.981-12.516-5.185-5.184-7.628-5.184-12.515S-1191.845 526.232-1188.642 523.029L-1188.642 523.029z"/></g><g><path fill="white" d="M-553.445 297.938c-.564 0-1.074.228-1.443.596-.369.369-.597.88-.597 1.444s.229 1.075.597 1.443c.369.369.879.597 1.443.597s1.075-.229 1.444-.597c.368-.368.597-.879.597-1.443s-.229-1.075-.597-1.444C-552.37 298.165-552.881 297.938-553.445 297.938L-553.445 297.938zM-563.373 290.05c2.541-2.541 6.053-4.113 9.928-4.113 3.877 0 7.387 1.572 9.928 4.113s4.113 6.052 4.113 9.928-1.572 7.386-4.113 9.928c-2.541 2.541-6.051 4.112-9.928 4.112-3.875 0-7.387-1.571-9.928-4.112-2.541-2.542-4.113-6.052-4.113-9.928S-565.914 292.591-563.373 290.05L-563.373 290.05zM-555.596 337.549c-3.42 0-6.516 1.387-8.756 3.627-2.238 2.238-3.625 5.334-3.625 8.754s1.387 6.516 3.625 8.754c2.24 2.24 5.336 3.627 8.756 3.627 3.419 0 6.515-1.387 8.754-3.627 2.24-2.238 3.626-5.334 3.626-8.754s-1.386-6.516-3.626-8.754C-549.081 338.936-552.177 337.549-555.596 337.549L-555.596 337.549zM-572.835 332.691c4.412-4.412 10.507-7.143 17.239-7.143 6.73 0 12.826 2.73 17.238 7.143s7.143 10.508 7.143 17.238c0 6.732-2.73 12.826-7.143 17.238s-10.508 7.143-17.238 7.143c-6.732 0-12.827-2.73-17.239-7.143s-7.142-10.506-7.142-17.238C-579.977 343.199-577.247 337.104-572.835 332.691L-572.835 332.691zM-523.281 312.081c-1.529 0-2.913.62-3.914 1.62-1.001 1.001-1.62 2.385-1.62 3.914s.619 2.912 1.62 3.914c1.001 1 2.385 1.619 3.914 1.619s2.913-.619 3.914-1.619c1.001-1.002 1.62-2.385 1.62-3.914s-.619-2.913-1.62-3.914C-520.368 312.701-521.752 312.081-523.281 312.081L-523.281 312.081zM-535.68 305.217c3.174-3.172 7.557-5.136 12.398-5.136 4.841 0 9.225 1.963 12.398 5.136 3.173 3.174 5.136 7.558 5.136 12.398 0 4.84-1.963 9.225-5.136 12.398-3.174 3.172-7.558 5.135-12.398 5.135-4.842 0-9.225-1.963-12.398-5.135-3.173-3.174-5.136-7.559-5.136-12.398S-538.853 308.391-535.68 305.217L-535.68 305.217zM-272.869 528.275c-3.643 3.643-8.673 5.895-14.229 5.895s-10.587-2.252-14.229-5.895c-3.642-3.641-5.895-8.672-5.895-14.227 0-5.557 2.253-10.588 5.895-14.229 3.642-3.643 8.673-5.895 14.229-5.895s10.586 2.252 14.229 5.895c3.642 3.641 5.895 8.672 5.895 14.229C-266.975 519.604-269.228 524.635-272.869 528.275L-272.869 528.275zM-287.098 522.17c2.243 0 4.274-.908 5.744-2.379 1.47-1.469 2.378-3.5 2.378-5.742 0-2.244-.909-4.275-2.378-5.744-1.47-1.471-3.501-2.379-5.744-2.379-2.244 0-4.275.908-5.744 2.379-1.47 1.469-2.379 3.5-2.379 5.744 0 2.242.909 4.273 2.379 5.744C-291.373 521.262-289.342 522.17-287.098 522.17L-287.098 522.17zM-256.445 468.867c-6.929 6.928-16.499 11.213-27.07 11.213-10.57 0-20.141-4.285-27.069-11.213-6.928-6.928-11.214-16.498-11.214-27.07 0-10.57 4.286-20.141 11.214-27.068 6.929-6.928 16.499-11.215 27.069-11.215 10.571 0 20.142 4.287 27.07 11.215 6.928 6.928 11.214 16.498 11.214 27.068S-249.518 461.939-256.445 468.867L-256.445 468.867zM-283.516 468.08c7.259 0 13.83-2.941 18.586-7.697s7.697-11.326 7.697-18.586c0-7.258-2.941-13.83-7.697-18.584-4.756-4.756-11.327-7.699-18.586-7.699-7.258 0-13.829 2.943-18.585 7.699-4.756 4.754-7.697 11.326-7.697 18.584 0 7.26 2.941 13.83 7.697 18.586S-290.773 468.08-283.516 468.08L-283.516 468.08zM-317.976 508.855c-4.752 4.752-11.316 7.691-18.567 7.691-7.25 0-13.814-2.939-18.566-7.691-4.753-4.752-7.692-11.318-7.692-18.568s2.94-13.814 7.692-18.566 11.316-7.691 18.566-7.691c7.251 0 13.815 2.939 18.567 7.691s7.691 11.316 7.691 18.566S-313.224 504.104-317.976 508.855L-317.976 508.855zM-336.543 504.547c3.938 0 7.503-1.596 10.083-4.176s4.176-6.145 4.176-10.084c0-3.938-1.596-7.502-4.176-10.082s-6.145-4.176-10.083-4.176c-3.938 0-7.504 1.596-10.083 4.176s-4.175 6.145-4.175 10.082c0 3.939 1.596 7.504 4.175 10.084S-340.48 504.547-336.543 504.547L-336.543 504.547z"/><path fill="none" stroke="#010101" stroke-linecap="round" stroke-linejoin="round" stroke-miterlimit="2.613" stroke-width="12" d="
		M-98.214,78.214l-483.573,483.571 M-231.322,195.831l15.49,15.49 M-237.337,201.847l15.489,15.49 M-234.359,198.869l15.489,15.49
		 M-97.955,104.291l-484.09,379.936 M-97.955,126.271l-484.09,293.005 M-124.267,77.955l-380.03,484.09 M-146.228,77.955
		l-293.175,484.09"/></g><g><path fill="white" d="M135.775 238.465c6.25 0 11.91 2.535 16.008 6.632s6.631 9.757 6.631 16.007c0 6.251-2.533 11.91-6.631 16.008s-9.758 6.631-16.008 6.631-11.91-2.533-16.008-6.631c-4.096-4.098-6.631-9.757-6.631-16.008 0-6.25 2.535-11.91 6.631-16.007C123.865 241 129.525 238.465 135.775 238.465L135.775 238.465zM143.299 253.58c-1.924-1.924-4.584-3.115-7.523-3.115-2.938 0-5.599 1.191-7.523 3.115-1.924 1.925-3.115 4.586-3.115 7.523 0 2.939 1.191 5.6 3.115 7.523 1.925 1.925 4.585 3.115 7.523 3.115 2.939 0 5.6-1.189 7.523-3.115 1.926-1.924 3.115-4.584 3.115-7.523C146.414 258.166 145.224 255.505 143.299 253.58L143.299 253.58zM178.93 271.742c8.977 0 17.105 3.641 22.99 9.524 5.884 5.884 9.523 14.013 9.523 22.991 0 8.977-3.641 17.105-9.523 22.99-5.885 5.885-14.014 9.523-22.99 9.523-8.979 0-17.107-3.639-22.991-9.523s-9.524-14.014-9.524-22.99c0-8.979 3.641-17.107 9.524-22.991S169.951 271.742 178.93 271.742L178.93 271.742zM193.436 289.75c-3.712-3.711-8.842-6.008-14.506-6.008-5.666 0-10.795 2.297-14.508 6.008-3.711 3.713-6.008 8.842-6.008 14.508 0 5.664 2.297 10.794 6.008 14.506 3.713 3.711 8.842 6.008 14.508 6.008 5.665 0 10.794-2.297 14.506-6.008 3.711-3.712 6.008-8.842 6.008-14.506C199.443 298.592 197.146 293.463 193.436 289.75L193.436 289.75zM172.363 218.062c4.859 0 9.259 1.971 12.443 5.155 3.186 3.185 5.156 7.585 5.156 12.443 0 4.859-1.971 9.26-5.156 12.444-3.185 3.185-7.584 5.155-12.443 5.155s-9.259-1.971-12.443-5.155c-3.186-3.185-5.156-7.585-5.156-12.444 0-4.858 1.971-9.258 5.156-12.443C163.104 220.032 167.504 218.062 172.363 218.062L172.363 218.062zM176.323 231.701c-1.013-1.013-2.413-1.639-3.96-1.639s-2.947.626-3.959 1.639c-1.014 1.013-1.641 2.412-1.641 3.959s.627 2.947 1.641 3.961c1.012 1.012 2.412 1.639 3.959 1.639s2.947-.627 3.96-1.639c1.013-1.014 1.64-2.414 1.64-3.961S177.336 232.714 176.323 231.701L176.323 231.701zM331.174 71.193h48.111c6.533 0 12.471 2.669 16.771 6.969 4.301 4.301 6.969 10.238 6.969 16.772v18.109 6h-6-41.797l0 0h-41.797-6v-6V94.935c0-6.535 2.669-12.472 6.969-16.772C318.701 73.863 324.639 71.193 331.174 71.193L331.174 71.193zM379.285 83.193h-48.111c-3.225 0-6.158 1.323-8.289 3.454-2.131 2.131-3.453 5.065-3.453 8.288v12.109h35.797l0 0h35.797V94.935c0-3.223-1.322-6.157-3.453-8.288C385.441 84.517 382.508 83.193 379.285 83.193L379.285 83.193z"/><path fill="white" d="M232.531,562.775L211.836,220.36c-7.12-1.16-13.49-4.55-18.371-9.431
		c-6.099-6.099-9.871-14.525-9.871-23.831c0-9.306,3.772-17.731,9.871-23.831c6.1-6.099,14.525-9.872,23.83-9.872h8.533
		c-3.516-4.819-5.592-10.755-5.592-17.176c0-8.055,3.266-15.35,8.546-20.63c5.279-5.28,12.574-8.546,20.63-8.546h105.816l0,0
		h105.816c8.055,0,15.35,3.266,20.631,8.546c5.279,5.28,8.545,12.575,8.545,20.63c0,6.42-2.074,12.357-5.59,17.176h8.531
		c9.305,0,17.73,3.772,23.83,9.872s9.871,14.524,9.871,23.831c0,9.306-3.771,17.731-9.871,23.831
		c-4.881,4.881-11.252,8.271-18.371,9.431l-20.719,342.798c-0.188,3.182-2.828,5.637-5.977,5.635v0.014H355.229l0,0H238.531
		c-3.314,0-6-2.688-6-6V562.775L232.531,562.775z M249.412,153.396h186.875c3.314,0,6,2.686,6,6c0,3.313-2.686,6-6,6H249.412
		h-32.117c-5.993,0-11.42,2.429-15.346,6.356c-3.927,3.926-6.355,9.353-6.355,15.346s2.429,11.42,6.355,15.346
		c3.926,3.927,9.354,6.356,15.346,6.356h0.202h250.179c3.313,0,6,2.687,6,6c0,3.314-2.688,6-6,6H223.857l20.309,336.005h111.063l0,0
		h111.063l20.67-341.975v-0.031c0-3.313,2.686-6,6-6h0.201c5.992,0,11.42-2.429,15.346-6.356c3.926-3.926,6.355-9.353,6.355-15.346
		s-2.428-11.42-6.355-15.346c-3.926-3.927-9.354-6.356-15.346-6.356h-32.117v-12c4.744,0,9.039-1.922,12.146-5.03
		c3.107-3.107,5.029-7.402,5.029-12.146c0-4.744-1.922-9.038-5.029-12.146c-3.107-3.108-7.402-5.03-12.146-5.03H355.229l0,0H249.412
		c-4.744,0-9.039,1.922-12.146,5.03c-3.107,3.107-5.029,7.402-5.029,12.146C232.236,145.706,239.926,153.396,249.412,153.396
		L249.412,153.396z"/><path fill="white" d="M361.229 513.988c0 3.314-2.686 6-6 6s-6-2.686-6-6V263.811c0-3.313 2.686-6 6-6s6 2.688 6 6V513.988L361.229 513.988zM411.318 502.48c0 3.313-2.688 6-6 6-3.314 0-6-2.688-6-6V275.32c0-3.313 2.686-6 6-6 3.313 0 6 2.687 6 6V502.48L411.318 502.48zM311.504 502.48c0 3.313-2.688 6-6 6-3.314 0-6-2.688-6-6V275.32c0-3.313 2.686-6 6-6 3.313 0 6 2.687 6 6V502.48L311.504 502.48z"/></g><g><path fill="white" d="M999.332 279.31l-85.476 18.857c-3.223.713-6.412-1.323-7.124-4.547-.712-3.223 1.323-6.412 4.547-7.125l93.268-20.578c.788-.245 1.639-.332 2.511-.226 3.288.401 5.628 3.392 5.227 6.68l-11.887 95.281c-.4 3.287-3.392 5.627-6.68 5.227-3.287-.402-5.627-3.393-5.226-6.68L999.332 279.31 999.332 279.31zM1021.848 254.595l-85.475 18.858c-3.224.712-6.413-1.323-7.125-4.547s1.324-6.413 4.548-7.125l91.89-20.274 142.698-156.634.004-.004.188-.203-.004-.003.001-.001.067-.065c6.388-6.862 14.949-10.544 23.671-10.95 8.813-.411 17.782 2.541 24.819 8.952l.004.004.203.188.004-.004.001.001.065.067c6.862 6.388 10.544 14.95 10.95 23.672.41 8.813-2.542 17.783-8.953 24.82-2.227 2.446-6.015 2.625-8.461.398-2.446-2.227-2.625-6.015-.398-8.461 4.195-4.605 6.127-10.475 5.859-16.243-.264-5.648-2.654-11.206-7.112-15.376-.15-.123-.295-.254-.435-.394l-.001 0 .002-.001c-4.573-4.064-10.354-5.934-16.033-5.669-5.647.263-11.205 2.654-15.375 7.112-.123.15-.254.295-.394.435l-.001 0-.002-.002-142.489 156.404-11.65 93.389c-.401 3.287-3.393 5.627-6.68 5.227-3.288-.402-5.628-3.393-5.227-6.68L1021.848 254.595 1021.848 254.595zM976.816 304.025l-85.476 18.858c-3.223.711-6.412-1.324-7.125-4.547-.711-3.223 1.324-6.412 4.547-7.125l93.266-20.577c.788-.247 1.641-.333 2.514-.228 3.288.402 5.628 3.393 5.227 6.68l-11.887 95.282c-.4 3.287-3.391 5.627-6.68 5.225-3.287-.4-5.627-3.391-5.227-6.678L976.816 304.025 976.816 304.025zM954.3 328.738l-85.475 18.859c-3.223.711-6.413-1.324-7.125-4.547-.711-3.223 1.324-6.414 4.547-7.125l93.266-20.578c.789-.247 1.641-.333 2.514-.228 3.288.401 5.628 3.393 5.227 6.68l-11.887 95.279c-.4 3.289-3.392 5.629-6.68 5.227-3.287-.4-5.627-3.391-5.227-6.68L954.3 328.738 954.3 328.738zM931.784 353.453l-85.475 18.859c-3.223.711-6.413-1.324-7.125-4.547-.712-3.225 1.324-6.414 4.547-7.125L937 340.063c.788-.246 1.639-.334 2.511-.227 3.287.4 5.628 3.393 5.227 6.68l-11.887 95.279c-.4 3.289-3.392 5.629-6.68 5.227-3.287-.4-5.627-3.391-5.227-6.68L931.784 353.453 931.784 353.453zM909.269 378.168l-85.475 18.859c-3.223.711-6.414-1.324-7.125-4.547-.712-3.225 1.324-6.414 4.547-7.125l93.266-20.578c.788-.246 1.641-.334 2.514-.227 3.287.4 5.627 3.391 5.227 6.68l-11.887 95.279c-.4 3.287-3.393 5.629-6.68 5.227-3.287-.4-5.627-3.393-5.227-6.68L909.269 378.168 909.269 378.168zM892.464 389.383c3.223-.713 6.413 1.322 7.125 4.547.711 3.223-1.324 6.412-4.547 7.125l-93.764 20.688c-3.224.711-6.414-1.324-7.125-4.547-.713-3.225 1.324-6.414 4.547-7.125L892.464 389.383 892.464 389.383zM887.8 394.492c.401-3.289 3.393-5.629 6.68-5.227 3.287.4 5.627 3.391 5.227 6.68l-11.887 95.279c-.401 3.287-3.393 5.627-6.68 5.227s-5.627-3.393-5.227-6.68L887.8 394.492 887.8 394.492zM864.237 427.598l-85.476 18.857c-3.223.713-6.413-1.324-7.124-4.547-.713-3.223 1.323-6.412 4.547-7.125l93.27-20.578c.787-.244 1.638-.332 2.51-.225 3.287.4 5.627 3.391 5.227 6.678l-11.887 95.281c-.401 3.287-3.393 5.627-6.68 5.227-3.288-.402-5.628-3.393-5.227-6.68L864.237 427.598 864.237 427.598zM841.722 452.313l-85.476 18.857c-3.224.713-6.413-1.324-7.125-4.547s1.324-6.412 4.547-7.125l93.267-20.576c.788-.248 1.641-.334 2.514-.229 3.287.402 5.627 3.393 5.227 6.68l-11.887 95.281c-.402 3.287-3.393 5.627-6.68 5.227-3.288-.402-5.628-3.393-5.227-6.68L841.722 452.313 841.722 452.313zM819.206 477.027l-80.334 17.725c-3.224.711-6.414-1.324-7.125-4.549-.713-3.223 1.324-6.412 4.547-7.123l88.123-19.443c.789-.248 1.642-.334 2.515-.229 3.288.402 5.628 3.393 5.227 6.68l-11.235 90.057c-.4 3.287-3.392 5.627-6.68 5.227-3.287-.402-5.627-3.393-5.227-6.68L819.206 477.027 819.206 477.027zM796.689 501.742l-56.973 12.568c-3.224.713-6.413-1.324-7.125-4.547s1.324-6.412 4.548-7.125l64.762-14.289c.789-.246 1.641-.332 2.515-.227 3.288.402 5.628 3.393 5.227 6.68l-8.273 66.316c-.401 3.289-3.392 5.629-6.68 5.227-3.288-.4-5.628-3.391-5.227-6.68L796.689 501.742 796.689 501.742zM779.386 513.064c.789-.246 1.641-.334 2.514-.227 3.288.4 5.629 3.393 5.227 6.68l-4.586 36.758c-.4 3.287-3.391 5.627-6.679 5.227-3.288-.402-5.628-3.393-5.227-6.68l3.539-28.367-27.884 6.152c-3.223.713-6.413-1.324-7.125-4.547s1.324-6.412 4.547-7.125L779.386 513.064 779.386 513.064zM942.358 539.744c2.046-5.293 1.746-10.928-.391-15.758-2.132-4.818-6.098-8.822-11.389-10.867s-10.927-1.746-15.758.391c-4.818 2.133-8.822 6.098-10.867 11.389s-1.746 10.928.391 15.758c2.133 4.818 6.098 8.822 11.389 10.867 5.292 2.045 10.928 1.746 15.758-.391C936.31 549.002 940.313 545.035 942.358 539.744L942.358 539.744zM952.937 519.158c3.364 7.604 3.823 16.504.578 24.898-3.244 8.395-9.578 14.676-17.195 18.045-7.604 3.365-16.504 3.822-24.898.578-8.393-3.244-14.674-9.578-18.045-17.195-3.363-7.604-3.822-16.504-.578-24.898 3.244-8.393 9.578-14.676 17.195-18.045 7.604-3.363 16.505-3.822 24.898-.578C943.284 505.207 949.566 511.541 952.937 519.158L952.937 519.158zM970.548 482.895c1.245-3.219 1.061-6.652-.244-9.6-1.299-2.936-3.711-5.373-6.932-6.617-3.219-1.244-6.652-1.061-9.6.244-2.936 1.299-5.373 3.711-6.617 6.932-1.244 3.219-1.061 6.652.244 9.6 1.299 2.936 3.711 5.373 6.932 6.617 3.219 1.244 6.652 1.061 9.6-.244C966.866 488.527 969.304 486.115 970.548 482.895L970.548 482.895zM981.272 468.467c2.531 5.721 2.875 12.42.432 18.74-2.443 6.322-7.211 11.051-12.945 13.588-5.721 2.531-12.42 2.875-18.74.432-6.322-2.443-11.051-7.211-13.588-12.945-2.531-5.721-2.875-12.42-.432-18.74 2.443-6.322 7.211-11.051 12.945-13.588 5.721-2.531 12.42-2.875 18.741-.432S978.735 462.732 981.272 468.467L981.272 468.467zM815.388 364.416c-.566 8.963-4.709 16.844-10.946 22.338-5.767 5.08-13.331 8.125-21.521 8.105-1.204 3.176-3.163 5.959-5.646 8.145-3.867 3.408-9.012 5.371-14.555 5.119v.004h-.001l-.375-.023c-5.69-.359-10.692-2.988-14.179-6.945-3.407-3.869-5.371-9.014-5.119-14.555h-.003v-.002l.023-.375c.268-4.238 1.8-8.098 4.204-11.23 1.227-1.598 2.682-3.006 4.313-4.184-.209-.779-.391-1.57-.543-2.371-.5-2.625-.682-5.348-.506-8.123.567-8.963 4.709-16.844 10.947-22.338 6.234-5.492 14.57-8.607 23.529-8.039 8.962.566 16.843 4.709 22.338 10.945C812.841 347.123 815.955 355.459 815.388 364.416L815.388 364.416zM796.521 377.754c3.94-3.471 6.558-8.441 6.914-14.088.357-5.648-1.611-10.914-5.086-14.857-3.473-3.941-8.443-6.559-14.088-6.914-5.65-.357-10.914 1.611-14.858 5.086-3.94 3.473-6.558 8.443-6.915 14.088-.111 1.777.002 3.51.318 5.17.322 1.691.86 3.324 1.587 4.863l2.868 6.078-6.383 2.148c-1.629.549-3.053 1.58-4.092 2.936-1.01 1.314-1.652 2.932-1.766 4.707l-.001.008c-.15 2.377.681 4.594 2.146 6.258 1.463 1.66 3.553 2.762 5.923 2.914h.007c2.377.15 4.596-.682 6.258-2.146 1.594-1.404 2.673-3.385 2.891-5.637v-7.07l7.056 1.27c.187.033.575.086 1.169.158.471.057.871.096 1.194.117C787.312 383.199 792.577 381.229 796.521 377.754L796.521 377.754z"/></g><g><path fill="white" d="M-863.85 1132.584c-5.705-6.729-13.611-10.511-21.777-11.184-8.168-.672-16.588 1.768-23.324 7.477-6.729 5.706-10.51 13.61-11.184 21.778-.672 8.167 1.768 16.587 7.477 23.322 3.689 4.351 8.295 7.47 13.291 9.312 5.209 1.92 10.832 2.463 16.283 1.58l5.963-.966.904 5.981c.229 1.521.672 3.028 1.33 4.476l-.02.009c.629 1.379 1.471 2.713 2.529 3.961 3.029 3.575 7.234 5.584 11.582 5.942s8.828-.938 12.41-3.975c3.574-3.03 5.584-7.236 5.941-11.583.359-4.349-.938-8.828-3.975-12.409-1.051-1.24-2.225-2.283-3.48-3.127-1.303-.875-2.725-1.558-4.217-2.042l-5.748-1.868 1.928-5.726c1.762-5.232 2.146-10.861 1.107-16.304C-857.828 1142.003-860.154 1136.943-863.85 1132.584L-863.85 1132.584zM-884.643 1109.447c11.209.924 22.072 6.132 29.934 15.403 5.074 5.986 8.271 12.94 9.646 20.139 1.08 5.648 1.033 11.453-.107 17.063.654.369 1.297.766 1.928 1.188 2.188 1.47 4.201 3.25 5.965 5.331 5.182 6.112 7.396 13.738 6.787 21.127-.609 7.39-4.043 14.554-10.162 19.74-6.111 5.182-13.738 7.396-21.127 6.787s-14.553-4.045-19.738-10.162c-1.756-2.07-3.178-4.34-4.268-6.734h-.023c-.316-.693-.602-1.397-.859-2.109-5.715.207-11.439-.695-16.824-2.681-6.881-2.536-13.223-6.833-18.307-12.827-7.855-9.266-11.211-20.832-10.289-32.041.924-11.21 6.131-22.073 15.404-29.935C-907.42 1111.882-895.852 1108.524-884.643 1109.447L-884.643 1109.447zM-876.779 1058.766l-.002-.002c-3.031-3.575-7.234-5.585-11.582-5.942-4.348-.358-8.828.938-12.408 3.973l-.002.002c-3.574 3.03-5.584 7.235-5.941 11.583-.359 4.348.938 8.828 3.975 12.409 3.029 3.575 7.234 5.584 11.582 5.942s8.828-.938 12.408-3.974l.002-.001c3.574-3.031 5.584-7.236 5.941-11.583C-872.447 1066.825-873.744 1062.346-876.779 1058.766L-876.779 1058.766zM-887.379 1040.868c7.387.607 14.549 4.042 19.734 10.157l.004.005c5.182 6.111 7.396 13.737 6.787 21.126-.607 7.389-4.043 14.552-10.158 19.738l-.004.002c-6.111 5.182-13.738 7.396-21.127 6.787s-14.553-4.044-19.738-10.161c-5.182-6.112-7.396-13.739-6.787-21.128.607-7.389 4.043-14.552 10.158-19.738l.004-.002C-902.395 1042.474-894.768 1040.259-887.379 1040.868L-887.379 1040.868zM-900.771 1056.794l-.002.001L-900.771 1056.794-900.771 1056.794zM-878.75 1082.757l.002-.001L-878.75 1082.757-878.75 1082.757zM-822.104 1085.84c-1.787-2.107-4.27-3.292-6.84-3.504-2.57-.211-5.217.554-7.33 2.344v.002c-2.107 1.786-3.293 4.27-3.504 6.839-.211 2.57.553 5.216 2.344 7.329v.001c1.787 2.107 4.27 3.292 6.84 3.504 2.57.211 5.217-.554 7.33-2.345 2.107-1.786 3.293-4.27 3.504-6.84C-819.547 1090.6-820.313 1087.953-822.104 1085.84L-822.104 1085.84zM-827.959 1070.383c5.611.462 11.053 3.074 14.996 7.723 3.936 4.644 5.619 10.438 5.156 16.049-.461 5.611-3.074 11.055-7.723 14.996-4.643 3.937-10.436 5.619-16.049 5.157-5.609-.462-11.053-3.073-14.994-7.721l-.002-.003c-3.936-4.644-5.619-10.437-5.156-16.048.461-5.61 3.072-11.052 7.721-14.994l.002-.002C-839.365 1071.604-833.572 1069.921-827.959 1070.383L-827.959 1070.383zM-836.273 1084.68L-836.273 1084.68-836.273 1084.68-836.273 1084.68zM-837.434 1098.85L-837.434 1098.85-837.434 1098.85-837.434 1098.85zM-1211.193 883.123c-.105-5.97 2.219-11.418 6.063-15.4 3.842-3.981 9.205-6.498 15.174-6.604 5.969-.106 11.418 2.218 15.4 6.061 3.98 3.844 6.498 9.205 6.604 15.175s-2.219 11.417-6.061 15.399c-3.844 3.982-9.205 6.499-15.176 6.605-5.969.105-11.416-2.219-15.398-6.063C-1208.57 894.454-1211.088 889.092-1211.193 883.123L-1211.193 883.123zM-1196.498 876.055c-1.709 1.771-2.744 4.197-2.697 6.855s1.168 5.045 2.939 6.754 4.195 2.744 6.854 2.697c2.658-.049 5.045-1.168 6.754-2.939 1.711-1.771 2.744-4.196 2.697-6.854-.047-2.658-1.166-5.045-2.938-6.755s-4.197-2.743-6.855-2.696S-1194.789 874.283-1196.498 876.055L-1196.498 876.055zM-1236.115 940.291c-.139-7.844 2.914-15.002 7.963-20.234 5.051-5.232 12.096-8.539 19.939-8.678s15.002 2.914 20.234 7.965c5.232 5.049 8.539 12.094 8.678 19.938s-2.914 15.002-7.965 20.234c-5.049 5.232-12.094 8.539-19.938 8.678s-15.002-2.914-20.234-7.964S-1235.977 948.134-1236.115 940.291L-1236.115 940.291zM-1219.518 928.389c-2.916 3.021-4.68 7.156-4.6 11.689.08 4.531 1.99 8.602 5.012 11.518s7.156 4.68 11.689 4.6c4.531-.08 8.602-1.99 11.518-5.012s4.68-7.157 4.6-11.689c-.08-4.531-1.99-8.602-5.012-11.518s-7.156-4.68-11.689-4.6C-1212.531 923.457-1216.602 925.367-1219.518 928.389L-1219.518 928.389zM-774.148 746.99l-98.131 98.161 6.666 6.667c28.57-28.569-11.768 11.784 15.342-15.312 26.883-26.865 63.02-62.981 82.801-82.905l.281-.281.139-.123.045-.022c.881-.917 1.32-2.101 1.316-3.279-.006-1.201-.475-2.407-1.406-3.331h-.023l0 0 .012-.012c-.922-.908-2.123-1.36-3.32-1.355-1.201.004-2.408.474-3.33 1.404v.023h-.002l-.01-.012c-.123.125-.15.148-.201.197l-.023.023c-.006.007-.006.006 0-.002l-.006-.006L-774.148 746.99-774.148 746.99zM-1002.439 990.942c-.252.251-.51.488-.773.712 13.246 13.246 26.49 26.495 39.732 39.749 2.471 2.472 2.471 6.479 0 8.951-2.473 2.472-6.48 2.472-8.951 0l-87.43-87.429c-2.473-2.473-2.473-6.48 0-8.952s6.48-2.472 8.951 0c12.938 12.931 25.873 25.86 38.807 38.791.225-.264.461-.522.713-.774 33.182-33.195 87.891-87.916 129.484-129.497l-3.088-3.087-4.23-4.23 4.23-4.23 102.361-102.393.002.002c.158-.17.25-.26.34-.346h.002c.014-.014.016-.015.047-.045v-.023l0 0 .012.012c3.234-3.254 7.488-4.891 11.756-4.908 4.271-.018 8.547 1.594 11.816 4.836h.023l0 0-.012.012c3.254 3.234 4.893 7.49 4.91 11.757.016 4.261-1.588 8.527-4.814 11.793l0 0c-.223.228-.4.384-.57.531l-.016.017.008.008-.125.109c-19.84 19.982-55.799 55.92-82.578 82.684-13.523 13.516 27.949-27.936-19.539 19.555l-4.242 4.241-4.242-4.241-3.094-3.094L-1002.439 990.942-1002.439 990.942zM-1206.486 1184.776c-1.643-2.86-.656-6.513 2.203-8.156 2.861-1.645 6.514-.658 8.156 2.202l5.961 10.375c1.645 2.86.658 6.513-2.203 8.156-2.859 1.645-6.512.658-8.156-2.203L-1206.486 1184.776-1206.486 1184.776zM-1198.33 1176.62c2.861 1.644 3.848 5.296 2.203 8.156-1.643 2.86-5.295 3.847-8.156 2.203l-10.375-5.962c-2.859-1.644-3.846-5.296-2.203-8.156 1.645-2.86 5.297-3.847 8.156-2.203L-1198.33 1176.62-1198.33 1176.62zM-1190.311 1168.601c-1.645-2.86-.656-6.513 2.203-8.156 2.861-1.645 6.514-.657 8.156 2.203l27.752 48.296c1.645 2.86.658 6.513-2.203 8.156-2.859 1.645-6.512.657-8.156-2.203L-1190.311 1168.601-1190.311 1168.601zM-1182.154 1160.444c2.861 1.644 3.848 5.296 2.203 8.156-1.643 2.86-5.295 3.847-8.156 2.203l-48.297-27.752c-2.859-1.644-3.846-5.296-2.203-8.156 1.645-2.86 5.297-3.847 8.156-2.203L-1182.154 1160.444-1182.154 1160.444zM-1174.135 1152.425c-1.643-2.86-.656-6.513 2.203-8.156 2.861-1.645 6.514-.658 8.156 2.203l40.908 71.191c1.645 2.86.658 6.513-2.203 8.156-2.859 1.644-6.512.657-8.156-2.203L-1174.135 1152.425-1174.135 1152.425zM-1165.979 1144.269c2.861 1.644 3.848 5.296 2.203 8.156-1.643 2.86-5.295 3.847-8.156 2.203l-71.191-40.908c-2.859-1.644-3.848-5.296-2.203-8.156s5.297-3.847 8.156-2.203L-1165.979 1144.269-1165.979 1144.269zM-1157.959 1136.249c-1.645-2.86-.656-6.513 2.203-8.156 2.861-1.645 6.514-.657 8.156 2.203l50.285 87.509c1.643 2.86.656 6.513-2.203 8.156-2.861 1.644-6.514.657-8.156-2.203L-1157.959 1136.249-1157.959 1136.249zM-1149.803 1128.093c2.861 1.644 3.848 5.296 2.203 8.156-1.643 2.86-5.295 3.847-8.156 2.203l-87.51-50.284c-2.859-1.645-3.846-5.296-2.203-8.157 1.645-2.86 5.297-3.847 8.156-2.202L-1149.803 1128.093-1149.803 1128.093zM-1141.783 1120.073c-1.643-2.86-.656-6.513 2.203-8.156 2.861-1.645 6.514-.658 8.156 2.203l57.066 99.311c1.643 2.86.656 6.513-2.203 8.156-2.861 1.645-6.514.658-8.156-2.203L-1141.783 1120.073-1141.783 1120.073zM-1133.627 1111.917c2.861 1.644 3.848 5.296 2.203 8.156-1.643 2.86-5.295 3.847-8.156 2.203l-99.311-57.065c-2.861-1.645-3.848-5.296-2.203-8.156 1.643-2.861 5.295-3.848 8.156-2.203L-1133.627 1111.917-1133.627 1111.917zM-1125.607 1103.897c-1.645-2.86-.656-6.513 2.203-8.156 2.861-1.645 6.514-.657 8.156 2.203l61.727 107.423c1.645 2.86.658 6.513-2.203 8.156-2.859 1.644-6.512.657-8.156-2.203L-1125.607 1103.897-1125.607 1103.897zM-1117.451 1095.741c2.861 1.644 3.848 5.296 2.203 8.156-1.643 2.86-5.295 3.847-8.156 2.203l-107.422-61.728c-2.861-1.644-3.848-5.296-2.203-8.156 1.643-2.86 5.295-3.847 8.156-2.203L-1117.451 1095.741-1117.451 1095.741zM-1109.432 1087.722c-1.643-2.86-.656-6.513 2.203-8.156 2.861-1.645 6.514-.658 8.156 2.203l64.418 112.107c1.645 2.86.658 6.513-2.203 8.156-2.859 1.644-6.512.657-8.156-2.203L-1109.432 1087.722-1109.432 1087.722zM-1101.275 1079.565c2.861 1.644 3.848 5.296 2.203 8.156-1.643 2.86-5.295 3.847-8.156 2.203l-112.107-64.419c-2.861-1.644-3.848-5.296-2.203-8.156s5.297-3.847 8.156-2.203L-1101.275 1079.565-1101.275 1079.565zM-1093.256 1071.546c-1.645-2.86-.658-6.513 2.203-8.156s6.512-.657 8.156 2.203l65.158 113.394c1.645 2.86.658 6.513-2.203 8.156-2.859 1.645-6.512.658-8.156-2.203L-1093.256 1071.546-1093.256 1071.546zM-1085.1 1063.39c2.861 1.644 3.848 5.296 2.203 8.156s-5.295 3.847-8.156 2.203l-113.395-65.158c-2.859-1.644-3.846-5.296-2.203-8.156 1.645-2.86 5.297-3.847 8.156-2.203L-1085.1 1063.39-1085.1 1063.39zM-1077.08 1055.37c-1.645-2.86-.656-6.513 2.203-8.156 2.861-1.645 6.514-.657 8.156 2.203l65.158 113.394c1.645 2.86.658 6.513-2.203 8.157-2.859 1.644-6.512.657-8.156-2.203L-1077.08 1055.37-1077.08 1055.37zM-1068.924 1047.214c2.861 1.644 3.848 5.296 2.203 8.156-1.643 2.86-5.295 3.847-8.156 2.203l-113.395-65.158c-2.859-1.644-3.846-5.296-2.203-8.156 1.645-2.86 5.297-3.847 8.156-2.203L-1068.924 1047.214-1068.924 1047.214zM-1060.904 1039.194c-1.645-2.86-.658-6.513 2.203-8.156s6.512-.657 8.156 2.203l65.158 113.394c1.645 2.86.658 6.513-2.203 8.156-2.859 1.645-6.512.658-8.156-2.203L-1060.904 1039.194-1060.904 1039.194zM-1052.748 1031.038c2.861 1.644 3.848 5.296 2.203 8.156s-5.295 3.847-8.156 2.203l-113.395-65.159c-2.859-1.643-3.846-5.295-2.203-8.156 1.645-2.859 5.297-3.846 8.156-2.203L-1052.748 1031.038-1052.748 1031.038zM-1044.729 1023.019c-1.645-2.86-.656-6.513 2.203-8.156 2.861-1.645 6.514-.657 8.156 2.203l65.158 113.394c1.645 2.861.658 6.513-2.203 8.157-2.859 1.644-6.512.657-8.156-2.203L-1044.729 1023.019-1044.729 1023.019zM-1036.572 1014.862c2.861 1.644 3.848 5.296 2.203 8.156-1.643 2.86-5.295 3.847-8.156 2.203l-113.395-65.158c-2.859-1.644-3.846-5.296-2.203-8.157 1.645-2.859 5.297-3.846 8.156-2.203L-1036.572 1014.862-1036.572 1014.862zM-1028.553 1006.843c-1.645-2.86-.658-6.513 2.203-8.156s6.512-.657 8.156 2.203l65.158 113.394c1.645 2.86.658 6.513-2.203 8.156-2.859 1.645-6.512.658-8.156-2.202L-1028.553 1006.843-1028.553 1006.843zM-1020.396 998.687c2.861 1.644 3.848 5.296 2.203 8.156s-5.295 3.847-8.156 2.203l-113.395-65.159c-2.859-1.643-3.846-5.295-2.203-8.156 1.645-2.859 5.297-3.846 8.156-2.203L-1020.396 998.687-1020.396 998.687zM-767.043 753.213l-.037.039.023-.024L-767.043 753.213-767.043 753.213zM-773.975 746.807l-.004-.004-.021.023.006.006L-773.975 746.807-773.975 746.807zM-773.979 746.803l.004.004c.049-.059.139-.163.037-.051L-773.979 746.803-773.979 746.803z"/></g><g><path fill="white" d="M-128.736,972.441l13.903,124.061L-128.736,972.441L-128.736,972.441z M-266.496,1043.644
		c-1.972,1.949-2.968,4.51-2.982,7.072c-0.015,2.576,0.958,5.164,2.922,7.15c1.949,1.972,4.51,2.967,7.073,2.981
		c2.561,0.015,5.132-0.947,7.113-2.887l-0.011-0.012l0,0l0.047-0.023c1.972-1.949,2.967-4.51,2.981-7.072
		c0.015-2.561-0.947-5.132-2.887-7.113l-0.011,0.011l0,0l-0.023-0.047c-1.949-1.972-4.51-2.968-7.073-2.981
		C-261.923,1040.707-264.51,1041.681-266.496,1043.644L-266.496,1043.644z M-508.812,921.869v-0.004
		c-0.555-3.549-0.389-7.045,0.39-10.34h-19.896c-6.848,0-13.045,2.774-17.531,7.26c-4.485,4.486-7.26,10.684-7.26,17.53
		s2.774,13.045,7.26,17.53c4.486,4.486,10.684,7.261,17.531,7.261c234.131,0,173.515,0.011,195.586,0.007
		c130.594-0.02,123.947-0.041,195.588-0.041v0.02c0.086,0,0.172,0.001,0.258,0.004c0.319,0.015,0.531,0.024,0.587,0.025
		c0.395,0.01-0.244-0.015,0.567-0.015c6.847,0,13.045-2.774,17.53-7.261c4.486-4.485,7.261-10.684,7.261-17.53
		s-2.775-13.044-7.261-17.53c-4.485-4.485-10.684-7.26-17.53-7.26c-0.812,0-0.173-0.024-0.567-0.015l-0.117,0.004
		c-0.238,0.028-0.481,0.044-0.728,0.044c-71.641,0-64.994-0.021-195.588-0.04c-15.52-0.003,9.809,0.001-55.175,0.005
		c0.199,6.668-1.89,13.003-5.634,18.132c-4.432,6.073-11.178,10.455-19.186,11.706h-0.002c-7.998,1.248-15.75-0.865-21.815-5.291
		c-6.073-4.433-10.455-11.179-11.706-19.188c-0.282-1.805-0.393-3.596-0.344-5.357h-9.292c0.157,0.666,0.289,1.344,0.396,2.031
		l0.001,0.001c1.147,7.352-0.797,14.478-4.865,20.054c-4.075,5.584-10.277,9.613-17.641,10.763h-0.004
		c-7.352,1.147-14.476-0.796-20.053-4.864C-503.633,935.435-507.662,929.232-508.812,921.869L-508.812,921.869z M-502.081,899.527
		c3.998-4.387,9.459-7.49,15.773-8.478h0.002c7.353-1.148,14.479,0.795,20.055,4.865c1.462,1.067,2.817,2.28,4.043,3.621
		l18.557,0.005c0.765-1.57,1.667-3.068,2.693-4.476c4.432-6.073,11.179-10.455,19.188-11.706h0.002
		c7.998-1.249,15.748,0.865,21.814,5.292c3.836,2.799,6.996,6.522,9.121,10.903l58.102,0.011
		c22.072,0.003-50.188-0.007,195.588-0.007c0.09,0,0.18,0.002,0.269,0.006l0.295-0.007c0.865-0.021,0.51-0.032,0.849-0.032
		c10.158,0,19.356,4.118,26.015,10.776c6.658,6.657,10.776,15.855,10.776,26.014c0,10.159-4.118,19.356-10.776,26.015
		c-3.768,3.768-8.348,6.721-13.455,8.576l14.292,127.53c0.362,3.288-2.01,6.247-5.297,6.609c-3.288,0.362-6.247-2.009-6.609-5.297
		l-14.193-126.651c-0.25,0.006-0.501,0.009-0.752,0.009c-0.339,0,0.017-0.012-0.849-0.032l-0.563-0.016v0.015h-4.067l14.049,125.363
		c0.362,3.288-2.01,6.247-5.297,6.609c-3.288,0.362-6.247-2.009-6.609-5.297l-2.107-18.808c-1.392,2.868-3.282,5.553-5.672,7.923
		l0.001,0.008l0.008,0.008h-0.001l-0.006,0.006l1.07,9.551c0.362,3.288-2.009,6.247-5.296,6.609c-1.535,0.17-2.999-0.258-4.16-1.096
		c-0.253,2.608-0.739,5.196-1.459,7.729c-2.005,7.06-5.807,13.716-11.401,19.246c-8.622,8.524-19.893,12.746-31.142,12.682
		c-11.262-0.064-22.498-4.424-31.037-13.061c-7.288-7.372-11.431-16.68-12.438-26.254c-1.773-1.019-2.979-2.922-3.005-5.116
		l-0.453-30.795c-2.517,1.9-5.35,3.188-8.295,3.862l0.014,22.284c4.102,5.26,6.132,11.611,6.096,17.954
		c-0.042,7.43-2.918,14.842-8.614,20.473c-5.681,5.616-13.11,8.399-20.526,8.356c-7.43-0.043-14.842-2.918-20.473-8.613
		c-5.617-5.682-8.399-13.111-8.356-20.527c0.025-4.417,1.052-8.828,3.076-12.862c-0.002-0.066-0.003-0.134-0.003-0.201
		l-0.078-126.036l-6.471-0.001l0.077,126.037c0,3.301-2.676,5.977-5.977,5.977c-3.3,0-5.977-2.676-5.977-5.977l-0.077-126.038
		c-8.083-0.002-4.476-0.002-6.472-0.002l0.078,126.04c0,3.301-2.676,5.977-5.977,5.977s-5.977-2.676-5.977-5.977l-0.077-126.039
		l-6.472,0.001l0.077,126.038c0,3.301-2.676,5.977-5.977,5.977c-3.3,0-5.977-2.676-5.977-5.977L-358.6,973.07l-6.471,0.002
		l0.077,126.034c0,3.301-2.676,5.977-5.977,5.977s-5.977-2.676-5.977-5.977l-0.077-126.032l-6.472,0.001l0.078,126.031
		c0,3.301-2.676,5.977-5.977,5.977s-5.977-2.676-5.977-5.977l-0.078-126.028l-6.471,0.001l0.078,126.027
		c0,3.301-2.676,5.977-5.977,5.977s-5.977-2.676-5.977-5.977l-0.078-126.024l-6.471,0.002l0.078,126.022
		c0,3.301-2.677,5.977-5.977,5.977c-3.301,0-5.977-2.676-5.977-5.977l-0.078-126.02l-6.471,0.002l0.077,126.018
		c0,3.301-2.677,5.977-5.977,5.977c-3.301,0-5.977-2.676-5.977-5.977l-0.077-126.015l-7.326,0.002l-2.368,126.099
		c-0.063,3.3-2.791,5.923-6.091,5.859c-3.301-0.064-5.924-2.791-5.859-6.092l2.363-125.862l-9.567,0.003l-4.371,126.114
		c-0.116,3.299-2.885,5.879-6.184,5.762c-3.299-0.116-5.878-2.885-5.763-6.184l4.357-125.689l-9.511,0.002L-522.425,1100
		c-0.551,3.255-3.636,5.446-6.891,4.896c-3.254-0.551-5.446-3.636-4.896-6.89l21.051-124.901l-9.26,0.001l-47.021,128.292
		c-1.139,3.106-4.58,4.702-7.688,3.563c-3.105-1.139-4.701-4.581-3.563-7.688l45.729-124.766
		c-7.495-1.368-14.198-5.006-19.37-10.178c-6.657-6.658-10.775-15.855-10.775-26.015c0-10.158,4.118-19.356,10.775-26.014
		c6.658-6.658,15.857-10.776,26.016-10.776L-502.081,899.527L-502.081,899.527z M-496.999,920.043
		c0.641,4.098,2.879,7.547,5.98,9.811c3.108,2.268,7.086,3.35,11.195,2.708l0.004-0.001c4.098-0.64,7.547-2.879,9.811-5.98
		c2.268-3.107,3.35-7.086,2.708-11.195l-0.001-0.002c-0.64-4.099-2.879-7.549-5.98-9.813c-3.107-2.268-7.086-3.35-11.195-2.707
		h-0.002c-4.1,0.641-7.549,2.879-9.813,5.98c-2.268,3.107-3.35,7.086-2.707,11.195V920.043L-496.999,920.043z M-434.437,915.054
		c0.741,4.745,3.334,8.739,6.924,11.36c3.598,2.625,8.201,3.877,12.957,3.135h0.002c4.744-0.742,8.738-3.334,11.357-6.924
		c2.626-3.598,3.879-8.201,3.136-12.957v-0.003c-0.741-4.744-3.334-8.737-6.925-11.358c-3.597-2.625-8.2-3.877-12.956-3.135
		l-0.001,0.001c-4.745,0.741-8.738,3.333-11.359,6.924C-433.927,905.693-435.18,910.298-434.437,915.054L-434.437,915.054z
		 M-221.5,1076.898c-6.282,6.209-9.452,14.374-9.499,22.553c-0.047,8.192,3.036,16.408,9.26,22.704
		c6.21,6.281,14.374,9.451,22.553,9.498c8.192,0.048,16.408-3.035,22.704-9.26c4.052-4.005,6.807-8.83,8.261-13.949
		c1.518-5.343,1.631-10.986,0.337-16.345l-1.421-5.885l5.897-1.357c1.5-0.345,2.971-0.902,4.367-1.672
		c1.316-0.725,2.576-1.662,3.74-2.813l0.008,0.008l0.017-0.008c3.34-3.302,5.026-7.642,5.051-11.988
		c0.025-4.345-1.606-8.703-4.899-12.054l-0.012,0.012v-0.001l-0.023-0.047c-3.302-3.34-7.643-5.026-11.988-5.051
		c-4.36-0.025-8.735,1.618-12.09,4.935c-1.141,1.128-2.091,2.382-2.848,3.72c-0.781,1.38-1.354,2.842-1.717,4.341l-1.429,5.887
		l-5.837-1.48c-5.357-1.358-11.002-1.314-16.348,0.138C-212.572,1070.184-217.443,1072.889-221.5,1076.898L-221.5,1076.898z
		 M-234.141,1073.228c1.278-1.697,2.694-3.322,4.25-4.86c1.538-1.521,3.16-2.904,4.85-4.152l-3.475-91.143h-7.1L-234.141,1073.228
		L-234.141,1073.228z M-213.303,1058.049c0.907-0.312,1.823-0.594,2.746-0.845c2.104-0.571,4.241-0.982,6.395-1.235l-5.271-82.896
		h-7.11L-213.303,1058.049L-213.303,1058.049z M-192.308,1053.67c1.256-2.153,2.815-4.183,4.679-6.023
		c0.912-0.901,1.868-1.729,2.862-2.484l-6.095-72.09h-6.57L-192.308,1053.67L-192.308,1053.67z M-173.209,1039.901
		c2.012-0.419,4.061-0.623,6.107-0.611c0.888,0.005,1.775,0.051,2.66,0.137l-7.436-66.354h-6.982L-173.209,1039.901
		L-173.209,1039.901z M-151.912,1043.675c1.868,1.166,3.631,2.563,5.248,4.193l0.012-0.011l0,0l0.023,0.047
		c0.713,0.721,1.381,1.471,2.002,2.245l-8.638-77.076h-6.56L-151.912,1043.675L-151.912,1043.675z M-289.318,1100.228
		c-3.34,3.303-5.026,7.643-5.051,11.989c-0.025,4.359,1.617,8.734,4.935,12.09c3.302,3.34,7.642,5.026,11.988,5.051
		c4.359,0.024,8.734-1.618,12.089-4.935c3.341-3.302,5.027-7.642,5.052-11.988c0.025-4.359-1.618-8.734-4.935-12.09
		c-3.303-3.341-7.643-5.026-11.989-5.052C-281.589,1095.269-285.964,1096.911-289.318,1100.228L-289.318,1100.228z
		 M-291.304,1086.91c2.065-1.136,4.24-2,6.473-2.594l-0.068-111.246h-6.475L-291.304,1086.91L-291.304,1086.91z M-272.878,1083.685
		c2.205,0.342,4.378,0.938,6.471,1.788l-0.008-13.81c-2.294-0.766-4.485-1.918-6.473-3.457L-272.878,1083.685L-272.878,1083.685z
		 M-246.69,1032.81l-0.88-59.737h-6.953l0.035,56.253C-251.735,1029.954-249.081,1031.116-246.69,1032.81L-246.69,1032.81z
		 M-266.441,1029.91l-0.035-56.838l-6.47-0.001l0.037,60.306C-270.924,1031.834-268.733,1030.678-266.441,1029.91L-266.441,1029.91z
		 M-146.947,973.073l13.832,123.429L-146.947,973.073L-146.947,973.073z M-165.229,973.073l7.604,67.857L-165.229,973.073
		L-165.229,973.073z M-151.811,1092.823l0.413,3.679L-151.811,1092.823L-151.811,1092.823z M-184.212,973.073l6.439,68.178
		L-184.212,973.073L-184.212,973.073z M-203.311,973.072l5.252,82.605L-203.311,973.072L-203.311,973.072z M-222.063,973.072
		l4.075,86.896L-222.063,973.072L-222.063,973.072z M-241.569,973.072l0.976,66.268L-241.569,973.072L-241.569,973.072z
		 M-240.265,1061.661l0.323,21.966L-240.265,1061.661L-240.265,1061.661z M-260.499,973.072l0.034,55.721L-260.499,973.072
		L-260.499,973.072z M-260.438,1072.777l0.01,15.997L-260.438,1072.777L-260.438,1072.777z M-277.444,973.071l0.04,65.008
		L-277.444,973.071L-277.444,973.071z M-277.388,1063.52l0.012,19.82L-277.388,1063.52L-277.388,1063.52z M-475.233,856.247
		c1.029,6.589,4.63,12.137,9.618,15.777c4.995,3.645,11.386,5.384,17.985,4.354h0.002c6.589-1.029,12.135-4.63,15.775-9.619
		c3.646-4.994,5.385-11.385,4.354-17.985v-0.002c-1.029-6.589-4.629-12.135-9.617-15.775c-4.996-3.646-11.386-5.385-17.986-4.354
		h-0.001c-6.589,1.029-12.136,4.63-15.776,9.618C-474.524,843.256-476.265,849.646-475.233,856.247L-475.233,856.247z
		 M-472.646,881.68c-7.471-5.452-12.861-13.751-14.4-23.604c-1.537-9.843,1.063-19.382,6.51-26.846
		c5.452-7.47,13.752-12.86,23.605-14.399h0.002c9.842-1.537,19.379,1.063,26.844,6.51c7.469,5.452,12.859,13.751,14.398,23.604
		l0.001,0.003c1.537,9.842-1.063,19.38-6.511,26.843c-5.451,7.471-13.751,12.861-23.604,14.4h-0.001
		C-455.645,889.728-465.183,887.127-472.646,881.68L-472.646,881.68z M-445.802,888.19L-445.802,888.19L-445.802,888.19
		L-445.802,888.19z M-447.63,876.378h0.002H-447.63L-447.63,876.378z"/></g><g><path fill="white" d="M152.975,1037.027c0.846,7.252,4.543,13.467,9.834,17.652c5.295,4.188,12.205,6.353,19.477,5.504
		c7.252-0.846,13.467-4.543,17.652-9.834c4.188-5.295,6.354-12.206,5.504-19.478c-0.846-7.251-4.543-13.466-9.834-17.651
		c-5.295-4.188-12.207-6.354-19.479-5.505c-7.25,0.847-13.465,4.543-17.65,9.835
		C154.291,1022.845,152.125,1029.756,152.975,1037.027L152.975,1037.027z M214.531,1182.104h184.008c3.314,0,6,2.687,6,6
		s-2.686,6-6,6h-183.92c0.074,7.412,0.184,15.032,0.332,22.87h267.91c1.412-9.69-0.492-19.795-2.395-29.871
		c-2.436-12.902-4.863-25.766-1.305-39.187c3.818-14.404,7.182-26.852,10.51-39.165c21.162-78.323,40.889-151.33,40.934-206.686
		c0.051-62.075-25.447-102.04-104.182-102.104c-2.656,0-4.908-1.732-5.686-4.128l-0.01,0.003l-9.775-29.721l-21.367,13.729
		l-0.014,0.01l-49.57,31.853l-64.277,41.303c-4.178,10.257-8.695,19.397-13.377,28.866c-17.178,34.748-36.586,74.025-44.35,180.459
		c3.484-2.354,7.178-4.309,11.014-5.855c7.77-3.134,16.121-4.584,24.463-4.284c0.426-1.527,0.949-3.038,1.57-4.521
		c1.344-3.204,3.141-6.272,5.4-9.109c6.613-8.295,15.963-13.126,25.736-14.229c9.752-1.102,19.93,1.52,28.217,8.124
		c8.295,6.612,13.127,15.963,14.23,25.735c1.102,9.754-1.521,19.931-8.127,28.218c-2.277,2.859-4.863,5.297-7.664,7.304
		c-1.297,0.93-2.654,1.774-4.063,2.53c2.146,8.053,2.588,16.522,1.262,24.822c-1.566,9.808-5.602,19.344-12.211,27.636v0.001
		c-10.242,12.85-24.725,20.332-39.861,22.041c-14.994,1.693-30.635-2.29-43.42-12.344c-0.047,7.512-0.053,15.238-0.018,23.189
		L214.531,1182.104L214.531,1182.104z M367.027,733.78l21.105,32.763l22.719-14.6c0.459-0.311,0.967-0.564,1.521-0.744
		c3.145-1.022,6.523,0.698,7.547,3.844l10.855,33.008c84.355,1.532,111.84,45.832,111.783,114.015
		c-0.047,57.065-19.953,130.74-41.309,209.779c-3.656,13.527-7.354,27.211-10.51,39.118c-2.869,10.824-0.691,22.363,1.492,33.937
		c2.42,12.821,4.846,25.683,1.41,39.157c-0.51,2.797-2.957,4.917-5.902,4.917H209.092v-0.022c-3.248,0.001-5.914-2.599-5.977-5.86
		c-0.303-14.43-0.48-28.231-0.541-41.452c-0.057-12.451-0.008-24.329,0.133-35.677c-5.863-8.293-9.406-17.843-10.516-27.667
		c-1.707-15.117,2.355-30.889,12.59-43.731c0.143-0.179,0.287-0.357,0.432-0.534c0.266-4.326,0.553-8.538,0.854-12.662
		c-5.873,5.767-13.629,9.696-22.422,10.723c-10.504,1.227-20.529-1.935-28.242-8.036c-7.717-6.104-13.105-15.142-14.334-25.666
		c-1.227-10.505,1.934-20.529,8.035-28.243c6.104-7.718,15.143-13.106,25.666-14.335c10.506-1.226,20.529,1.936,28.244,8.036
		c3.057,2.418,5.748,5.297,7.959,8.546c9.621-73.036,25.926-106.048,40.641-135.813c4.848-9.806,9.52-19.255,13.6-29.453
		c0.412-1.264,1.248-2.398,2.455-3.174l22.84-14.676L269.4,796.507c-1.787-2.782-0.979-6.487,1.805-8.273l87.549-56.258
		C361.537,730.189,365.242,730.998,367.027,733.78L367.027,733.78z M378.059,773.018l-17.865-27.732l-77.475,49.785l17.863,27.73
		l36.35-23.357L378.059,773.018L378.059,773.018z M215.596,1080.295l-0.057,0.064c-0.471,0.539-0.932,1.092-1.383,1.657
		c-8.18,10.263-11.424,22.873-10.059,34.966c1.363,12.072,7.334,23.626,17.59,31.8l0,0c10.262,8.179,22.873,11.424,34.965,10.059
		c12.072-1.364,23.627-7.335,31.799-17.59l0,0c5.299-6.646,8.527-14.257,9.773-22.057c1.293-8.087,0.461-16.418-2.398-24.127
		l-2.102-5.662l5.711-2.049c2.215-0.795,4.377-1.928,6.418-3.391c1.951-1.398,3.73-3.07,5.275-5.007
		c4.549-5.707,6.354-12.724,5.594-19.452c-0.758-6.708-4.076-13.13-9.775-17.673c-5.709-4.549-12.725-6.354-19.453-5.594
		c-6.709,0.758-13.131,4.077-17.674,9.777c-1.561,1.959-2.797,4.064-3.713,6.25c-0.951,2.268-1.564,4.634-1.854,7.025l-0.721,6.013
		l-6.004-0.786c-8.127-1.063-16.438-0.009-24.064,3.068C226.787,1070.282,220.637,1074.54,215.596,1080.295L215.596,1080.295z
		 M297.826,1148.704L297.826,1148.704L297.826,1148.704L297.826,1148.704z M140.607,1102.041c0.531,4.56,2.852,8.465,6.174,11.092
		c3.324,2.629,7.672,3.988,12.25,3.454c4.559-0.532,8.465-2.854,11.092-6.175c2.629-3.324,3.988-7.671,3.453-12.25
		c-0.531-4.559-2.854-8.464-6.174-11.091c-3.324-2.63-7.672-3.988-12.25-3.454c-4.559,0.531-8.465,2.853-11.092,6.174
		C141.432,1093.115,140.072,1097.462,140.607,1102.041L140.607,1102.041z M139.375,1122.508c-5.748-4.546-9.76-11.274-10.674-19.106
		c-0.912-7.813,1.441-15.272,5.984-21.017c4.547-5.747,11.275-9.76,19.107-10.674c7.811-0.912,15.271,1.442,21.016,5.985
		c5.748,4.546,9.76,11.274,10.674,19.106c0.912,7.813-1.441,15.272-5.984,21.016c-4.547,5.747-11.275,9.761-19.107,10.675
		C152.578,1129.404,145.119,1127.051,139.375,1122.508L139.375,1122.508z M172.188,873.059c6.514,6.563,15.055,9.865,23.596,9.896
		c8.57,0.031,17.15-3.203,23.707-9.711c6.564-6.514,9.865-15.054,9.896-23.594c0.033-8.571-3.201-17.152-9.709-23.708
		c-4.205-4.237-9.264-7.112-14.625-8.624c-5.58-1.572-11.48-1.678-17.086-0.313l-6.311,1.538l-1.477-6.351
		c-0.373-1.604-0.949-3.135-1.729-4.542c-0.752-1.36-1.732-2.669-2.939-3.886c-3.455-3.48-7.977-5.232-12.494-5.249
		c-4.541-0.017-9.086,1.693-12.559,5.134l0.012,0.014l0,0h-0.025c-3.48,3.455-5.232,7.977-5.248,12.493
		c-0.018,4.54,1.693,9.086,5.133,12.56l0.014-0.013l0,0v0.025c1.17,1.179,2.479,2.164,3.881,2.954
		c1.482,0.836,3.006,1.436,4.523,1.799l6.344,1.525l-1.58,6.288c-1.416,5.626-1.363,11.525,0.158,17.087
		C165.137,863.74,167.977,868.814,172.188,873.059L172.188,873.059z M195.783,895.809c-11.871-0.045-23.717-4.607-32.719-13.677
		c-5.82-5.864-9.75-12.909-11.793-20.372c-1.594-5.816-2.035-11.87-1.33-17.8c-0.686-0.319-1.359-0.665-2.018-1.036
		c-2.389-1.346-4.645-3.049-6.691-5.109l-0.012,0.014v-0.001v-0.024c-5.949-5.994-8.906-13.828-8.877-21.646
		c0.029-7.843,3.037-15.663,9.016-21.604l-0.012-0.012v-0.002h0.025c5.994-5.948,13.828-8.904,21.645-8.877
		c7.848,0.029,15.676,3.043,21.619,9.03c2.012,2.028,3.699,4.308,5.057,6.759c0.369,0.669,0.713,1.346,1.027,2.028
		c5.959-0.674,12.016-0.194,17.809,1.438c7.434,2.096,14.445,6.08,20.271,11.951c9.008,9.075,13.484,20.938,13.441,32.781
		c-0.045,11.871-4.607,23.715-13.678,32.718C219.488,891.377,207.625,895.854,195.783,895.809L195.783,895.809z M128.051,926.167
		c4.891,0,9.318-1.981,12.521-5.185c3.203-3.204,5.186-7.631,5.186-12.521c0-4.89-1.982-9.316-5.186-12.52
		c-3.203-3.204-7.631-5.186-12.521-5.186c-4.889,0-9.316,1.981-12.52,5.186c-3.203,3.203-5.186,7.63-5.186,12.52
		c0,4.891,1.982,9.317,5.186,12.521C118.734,924.186,123.162,926.167,128.051,926.167L128.051,926.167z M149.695,930.105
		c-5.539,5.539-13.193,8.966-21.645,8.966s-16.104-3.427-21.643-8.966c-5.541-5.54-8.967-13.192-8.967-21.645
		c0-8.451,3.426-16.104,8.967-21.644c5.539-5.54,13.191-8.966,21.643-8.966c8.453,0,16.105,3.426,21.645,8.966
		s8.967,13.192,8.967,21.644C158.662,916.913,155.234,924.565,149.695,930.105L149.695,930.105z M181.174,955.791
		c2.869,0,5.467-1.163,7.346-3.042c1.879-1.88,3.043-4.478,3.043-7.347s-1.164-5.467-3.043-7.347s-4.477-3.042-7.346-3.042
		s-5.467,1.162-7.348,3.042c-1.879,1.88-3.041,4.478-3.041,7.347s1.162,5.467,3.041,7.347
		C175.707,954.628,178.305,955.791,181.174,955.791L181.174,955.791z M197.643,961.873c-4.215,4.215-10.037,6.822-16.469,6.822
		s-12.256-2.607-16.471-6.822c-4.215-4.216-6.822-10.039-6.822-16.471s2.607-12.254,6.822-16.47s10.039-6.823,16.471-6.823
		s12.254,2.607,16.469,6.823c4.217,4.216,6.824,10.038,6.824,16.47S201.859,957.656,197.643,961.873L197.643,961.873z
		 M396.328,801.873c2.781-1.786,6.486-0.979,8.273,1.805c1.785,2.783,0.977,6.487-1.805,8.273l-116.572,74.906
		c-2.783,1.785-6.486,0.978-8.273-1.805c-1.785-2.783-0.977-6.488,1.805-8.273L396.328,801.873L396.328,801.873z M437.188,818.82
		c19.074-2.449,34.121,1.334,45.773,9.738c16.041,11.568,25.135,31.621,29.158,55.98c3.877,23.478,3.068,51.119-0.703,78.897
		c-8.904,65.557-34.813,132.693-54.717,147.882l-10.863,8.289l1.277-13.586c3.143-33.41,3.363-90.304,0.291-147.525
		c-2.625-48.906-7.65-97.912-15.303-132.457l-1.414-6.383L437.188,818.82L437.188,818.82z M475.977,838.262
		c-7.928-5.717-18.066-8.705-30.795-8.148c7.027,34.729,11.684,81.36,14.176,127.773c2.59,48.232,2.846,96.363,0.992,130.702
		c15.598-25.056,32.33-76.11,39.207-126.746c3.627-26.698,4.424-53.133,0.75-75.382
		C496.777,865.098,489.162,847.771,475.977,838.262L475.977,838.262z"/></g><g><path fill="white" d="M769.972,870.189l135.977-135.976c1.171-1.172,2.706-1.757,4.242-1.757v-0.002h275.646
		c3.314,0,6,2.687,6,6.001v411.674c0,3.313-2.686,6-6,6h-102.635c-3.314,0-6-2.687-6-6c0-0.574,0.08-1.13,0.23-1.655
		c2.254-10.892,4.074-22.158,5.115-32.995c0.928-9.671,1.24-19.043,0.686-27.547c-2.885-44.349,3.451-67.03,4.914-72.265
		c0.082-0.297,0.141-0.51,0.178-0.665l0.006-0.022l-0.006-0.001c1.791-7.58,3.57-15.175,5.35-22.766
		c1.992-8.506,3.986-17.011,5.994-25.489c0.447-1.895,0.096-3.774-0.836-5.281c-0.93-1.506-2.441-2.659-4.311-3.102
		c-1.895-0.447-3.775-0.095-5.281,0.836c-1.506,0.93-2.66,2.441-3.102,4.311c-4.107,17.398-7.09,29.939-10.086,42.545
		c-3.383,14.223-6.783,28.518-8.605,36.223c-0.037,0.162-0.082,0.321-0.133,0.478c-1.439,5.485-4.555,8.657-8.111,10.014
		c-2.002,0.764-4.08,0.922-6.07,0.568c-1.875-0.332-3.684-1.137-5.268-2.324c-3.352-2.511-5.674-6.786-5.307-11.876
		c0.018-0.255,0.051-0.506,0.1-0.75c1.424-10.631,3.006-21.802,4.65-33.433c3.725-26.33,7.771-54.933,9.443-72.047
		c0.008-0.077,0.016-0.196,0.023-0.35c0.107-2.165-0.756-4.238-2.219-5.845c-1.533-1.686-3.672-2.84-6.023-3.068
		c-0.104-0.01-0.246-0.02-0.428-0.029c-2.395-0.12-4.502,0.72-6.107,2.171c-1.85,1.673-3.113,4.154-3.512,6.99l-13.961,99.225
		c-0.023,0.169-0.055,0.335-0.092,0.499c-0.834,4.715-3.182,7.895-5.988,9.523c-1.729,1.004-3.607,1.437-5.484,1.313
		c-1.883-0.125-3.693-0.79-5.273-1.981c-2.697-2.031-4.732-5.684-4.908-10.714c-0.002-0.063-0.002-0.125-0.002-0.188h-0.021
		c0-46.284-0.006-52.283-0.012-58.272c-0.027-32.962-0.057-49.826-0.057-58.227c0-2.511-1.018-4.785-2.662-6.431
		c-1.645-1.645-3.918-2.662-6.43-2.662s-4.785,1.018-6.432,2.662c-1.645,1.646-2.662,3.92-2.662,6.431
		c0,7.272-0.029,24.698-0.057,56.669c-0.006,5.828-0.012,11.668-0.012,56.715c0,0.273-0.02,0.544-0.055,0.808
		c-0.285,4.104-2.498,7.117-5.504,8.876c-1.587,0.928-3.362,1.478-5.146,1.622c-1.76,0.143-3.59-0.101-5.313-0.755
		c-3.568-1.352-6.569-4.326-7.5-9.088c-0.019-0.092-0.034-0.183-0.047-0.274c-1.777-10.277-4.073-23.389-6.368-36.485
		c-3.338-19.068-6.68-38.143-10.269-59.324h-0.004c-0.427-2.469-1.815-4.533-3.714-5.871c-1.905-1.344-4.328-1.959-6.815-1.529
		l-0.007,0.002c-2.467,0.428-4.529,1.815-5.866,3.712c-1.343,1.905-1.959,4.329-1.528,6.816v0.003
		c3.142,18.294,6.293,36.606,9.447,54.92c3.156,18.314,6.319,36.633,9.485,54.938c0.046,0.272,0.073,0.544,0.083,0.813
		c0.461,4.882,5.064,57.373-10.39,62.304c-2.295,0.727-4.702-0.004-6.224-1.674l-0.011,0.01
		c-6.134-6.761-12.302-13.518-18.47-20.273c-9.736-10.664-19.474-21.331-28.854-31.764l-0.046-0.052
		c-2.265-2.457-5.296-3.778-8.376-3.928c-3.121-0.151-6.301,0.887-8.797,3.151c-2.506,2.273-3.852,5.334-4.004,8.445
		c-0.15,3.122,0.887,6.302,3.152,8.798c0.102,0.111,0.197,0.225,0.289,0.342l2.463,2.719l0.002-0.002
		c-0.936-1.037-3.598-3.985,0.011-0.01c19.669,21.67,40.073,44.151,46.628,74.299c0.698,3.235-1.357,6.426-4.594,7.125
		c-0.425,0.091-0.849,0.136-1.266,0.136v0.005H774.163c-3.314,0-6-2.687-6-6V874.482C768.163,872.8,768.856,871.279,769.972,870.189
		L769.972,870.189z M912.674,744.456L780.163,876.967v267.163h118.869c-7.457-23.629-24.932-42.883-41.831-61.502
		c-1.604-1.768-0.896-0.989,0.001-0.001l0.008-0.008l-2.483-2.743c-0.099-0.096-0.196-0.194-0.29-0.298
		c-4.488-4.945-6.546-11.242-6.246-17.422c0.301-6.192,2.957-12.263,7.895-16.742c4.945-4.487,11.242-6.545,17.422-6.245
		c6.141,0.299,12.16,2.912,16.629,7.771c0.047,0.048,0.092,0.097,0.137,0.146c9.679,10.765,19.244,21.242,28.807,31.717
		c4.779,5.236,9.561,10.472,14.324,15.71c3.382-10.131,0.384-42.906,0.006-46.858c-3.163-18.29-6.322-36.592-9.477-54.891
		c-3.135-18.199-6.266-36.398-9.389-54.578c-0.053-0.231-0.093-0.469-0.119-0.709c-0.869-5.598,0.563-11.044,3.605-15.358
		c3.037-4.308,7.678-7.485,13.236-8.56c0.257-0.063,0.52-0.107,0.787-0.137c5.596-0.867,11.039,0.564,15.352,3.605
		c4.308,3.037,7.485,7.678,8.56,13.237c0.063,0.265,0.111,0.534,0.14,0.812c3.088,18.211,6.648,38.547,10.209,58.881
		c1.903,10.864,3.803,21.714,6.122,35.11c0.005-8.318,0.03-25.407,0.057-54.466c0.005-5.827,0.011-11.646,0.011-56.669
		c0-5.823,2.361-11.097,6.179-14.914s9.091-6.179,14.915-6.179c5.822,0,11.096,2.361,14.914,6.179
		c3.816,3.817,6.178,9.091,6.178,14.914c0,47.189,0.006,52.353,0.01,58.227c0.018,19.333,0.035,33.507,0.045,43.419l11.885-84.464
		c0.791-5.619,3.438-10.665,7.355-14.209c3.889-3.517,8.961-5.552,14.686-5.265c0.293,0.015,0.625,0.041,0.99,0.076
		c5.434,0.53,10.314,3.127,13.758,6.912c3.516,3.863,5.588,8.984,5.313,14.47c-0.014,0.265-0.037,0.567-0.07,0.912
		c-1.73,17.706-5.771,46.27-9.49,72.563c-1.762,12.451-3.453,24.413-4.656,33.387c-0.051,0.691,0.182,1.211,0.525,1.468l0.029,0.02
		c0.189-0.206,0.412-0.721,0.652-1.638c0.016-0.092,0.035-0.183,0.057-0.274c3.891-16.451,6.24-26.327,8.604-36.269
		c3.748-15.755,7.508-31.57,10.088-42.498c1.203-5.088,4.359-9.211,8.492-11.764c4.131-2.552,9.217-3.531,14.281-2.336
		c5.088,1.203,9.213,4.361,11.764,8.492c2.553,4.131,3.531,9.219,2.336,14.282c-2.008,8.479-4.002,16.982-5.994,25.488
		c-1.779,7.592-3.559,15.186-5.35,22.766l-0.006-0.001c-0.053,0.227-0.164,0.619-0.313,1.158
		c-1.359,4.865-7.248,25.947-4.492,68.327c0.592,9.082,0.258,19.092-0.732,29.422c-0.875,9.099-2.256,18.411-3.965,27.525h89.348
		V744.456H912.674L912.674,744.456z M866.048,1074.577c0.447,0.493,0.33,0.363,0.002-0.002L866.048,1074.577L866.048,1074.577z
		 M857.202,1082.627c1.141,1.255,2.594,2.851,0.008-0.008L857.202,1082.627L857.202,1082.627z"/><path fill="white" d="M954.341 1217.166c2.434 2.227 2.602 6.004.375 8.438s-6.004 2.602-8.438.375c-.115-.106-40.587-36.888-43.986-66.627-.604-5.284-1.723-10.347-3.265-15.222h12.512c1.206 4.447 2.11 9.059 2.659 13.862C917.09 1183.29 954.235 1217.068 954.341 1217.166L954.341 1217.166zM1090.483 1144.13c-.76 4.057-1.586 8.077-2.461 12.025-6.904 31.174-17.299 58.476-23.111 63.97-2.406 2.265-6.195 2.149-8.461-.259-2.264-2.407-2.148-6.195.26-8.46 4.441-4.198 13.205-28.773 19.641-57.828.689-3.111 1.348-6.268 1.965-9.448H1090.483L1090.483 1144.13zM916.19 738.456v136.026c0 3.313-2.688 6-6 6H774.163c-3.314 0-6-2.687-6-6 0-1.683.693-3.203 1.809-4.293l135.977-135.976c2.342-2.343 6.141-2.343 8.484 0 1.171 1.171 1.756 2.706 1.756 4.242H916.19L916.19 738.456zM904.19 868.482V752.939L788.647 868.482H904.19L904.19 868.482z"/></g></svg>


		 
		 